<?xml version="1.0" standalone="no"?>
<!DOCTYPE svg PUBLIC "-//W3C//DTD SVG 1.1//EN" "http://www.w3.org/Graphics/SVG/1.1/DTD/svg11.dtd" >
<svg xmlns="http://www.w3.org/2000/svg">
<metadata>Generated by IcoMoon</metadata>
<defs>
<font id="roysha-icon" horiz-adv-x="1024">
<font-face units-per-em="1024" ascent="960" descent="-64" />
<missing-glyph horiz-adv-x="1024" />
<glyph unicode="&#x20;" horiz-adv-x="512" d="" />
<glyph unicode="&#xe900;" horiz-adv-x="1058" d="M864.535 502.692c-93.57 0-195.048-22.404-195.048-71.166v-424.36c0-6.589 1.318-13.179 5.272-19.768 6.589-9.225 17.133-17.133 30.311-25.040 19.768-9.225 44.808-15.815 72.484-21.086 27.676-3.954 56.669-6.589 85.663-6.589 93.57 0 195.048 22.404 195.048 71.166v425.678c0 48.762-100.16 71.166-193.73 71.166zM440.175 240.432c85.663 0 155.511 69.848 155.511 155.511s-69.848 155.511-155.511 155.511-155.511-69.848-155.511-155.511c0-85.663 68.53-155.511 155.511-155.511zM440.175 523.779c69.848 0 127.835-56.669 127.835-127.835 0-69.848-56.669-127.835-127.835-127.835-69.848 0-127.835 56.669-127.835 127.835s56.669 127.835 127.835 127.835z" />
<glyph unicode="&#xe901;" horiz-adv-x="1058" d="M914.615 608.124v-52.716c0-7.907-6.589-14.497-14.497-14.497s-15.815 6.589-15.815 14.497v38.219h-853.992v-394.049h586.461c7.907 0 15.815-6.589 15.815-15.815 0-7.907-6.589-14.497-15.815-14.497h-602.275c-7.907 0-14.497 6.589-14.497 14.497v424.36c0 3.954 1.318 7.907 5.272 10.543 2.636 2.636 6.589 3.954 10.543 3.954h884.304c2.636 0 6.589-1.318 9.225-2.636s5.272-6.589 5.272-11.861z" />
<glyph unicode="&#xe902;" horiz-adv-x="1058" d="M809.184 679.29c0-7.907-6.589-14.497-15.815-15.815-1.318 0-2.636 0-3.954 0l-691.892 156.829-31.629-143.65c-1.318-7.907-10.543-13.179-18.45-11.861s-13.179 10.543-11.861 18.45l35.583 158.147c1.318 3.954 3.954 7.907 6.589 9.225 3.954 2.636 7.907 3.954 11.861 2.636l707.707-159.465c6.589-1.318 11.861-7.907 11.861-14.497z" />
<glyph unicode="&#xe903;" horiz-adv-x="1058" d="M719.568 762.317c-3.954-7.907-11.861-11.861-19.768-7.907l-411.181 171.326-30.311-57.987c0 0 0 0 0-1.318-3.954-7.907-13.179-10.543-21.086-6.589s-10.543 13.179-6.589 21.086l35.583 71.166c3.954 6.589 11.861 10.543 19.768 6.589l424.36-176.597c7.907-3.954 11.861-11.861 9.225-19.768z" />
<glyph unicode="&#xe904;" horiz-adv-x="1058" d="M736.7 538.275c0-7.907-6.589-14.497-14.497-14.497h-141.014c-7.907 0-14.497 6.589-14.497 14.497s6.589 15.815 14.497 15.815h141.014c7.907-1.318 14.497-7.907 14.497-15.815z" />
<glyph unicode="&#xe905;" horiz-adv-x="1058" d="M440.175 551.454c-85.663 0-155.511-69.848-155.511-155.511s69.848-155.511 155.511-155.511c85.663 0 155.511 69.848 155.511 155.511 0 86.981-69.848 155.511-155.511 155.511zM440.175 269.426c-69.848 0-127.835 56.669-127.835 127.835 0 69.848 56.669 127.835 127.835 127.835 69.848 0 127.835-56.669 127.835-127.835-1.318-71.166-57.987-127.835-127.835-127.835z" />
<glyph unicode="&#xe906;" horiz-adv-x="1058" d="M864.535 502.692c-93.57 0-195.048-22.404-195.048-71.166v-424.36c0-6.589 1.318-13.179 5.272-19.768 6.589-9.225 17.133-17.133 30.311-25.040 19.768-9.225 44.808-15.815 72.484-21.086 27.676-3.954 56.669-6.589 85.663-6.589 93.57 0 195.048 22.404 195.048 71.166v425.678c0 48.762-100.16 71.166-193.73 71.166zM1024 7.166c-2.636-9.225-56.669-35.583-159.465-35.583s-156.829 26.358-159.465 35.583v27.676c38.219-18.45 100.16-27.676 159.465-27.676s121.246 9.225 159.465 27.676v-27.676zM1024 78.332c-2.636-9.225-55.351-35.583-159.465-35.583-68.53 0-115.974 11.861-139.696 22.404-11.861 5.272-18.45 10.543-19.768 13.179v27.676c10.543-5.272 23.722-10.543 38.219-14.497 35.583-9.225 79.073-14.497 121.246-14.497 59.305 0 121.246 9.225 159.465 27.676v-26.358zM1024 149.498c-2.636-9.225-55.351-35.583-159.465-35.583-40.855 0-73.802 3.954-98.842 9.225-38.219 7.907-57.987 19.768-59.305 26.358v27.676c21.086-10.543 50.080-18.45 81.709-22.404 25.040-3.954 51.398-5.272 76.438-5.272 59.305 0 121.246 9.225 159.465 27.676v-27.676zM1024 219.346c-2.636-9.225-55.351-35.583-159.465-35.583-19.768 0-36.901 1.318-52.716 2.636-68.53 6.589-104.113 25.040-106.749 32.947v27.676c31.629-15.815 81.709-25.040 133.107-27.676 9.225 0 17.133 0 26.358 0 59.305 0 121.246 9.225 159.465 27.676v-27.676zM1024 290.512c-2.636-9.225-55.351-35.583-156.829-35.583h-2.636c-104.113 0-156.829 26.358-159.465 35.583v27.676c38.219-18.45 100.16-27.676 159.465-27.676 11.861 0 22.404 0 34.265 1.318 47.444 2.636 94.888 11.861 125.199 26.358v-27.676zM1024 361.678c-1.318-6.589-31.629-22.404-86.981-30.311-19.768-2.636-44.808-5.272-71.166-5.272-104.113 0-156.829 26.358-159.465 35.583v27.676c38.219-18.45 100.16-27.676 159.465-27.676 42.172 0 85.663 3.954 119.928 13.179 14.497 3.954 27.676 9.225 38.219 14.497v-27.676zM864.535 395.943c-102.795 0-156.829 26.358-159.465 35.583v0c2.636 9.225 55.351 35.583 159.465 35.583 102.795 0 155.511-25.040 159.465-35.583-3.954-9.225-56.669-35.583-159.465-35.583z" />
<glyph unicode="&#xe907;" horiz-adv-x="1058" d="M313.658 254.929c0-7.907-6.589-15.815-15.815-15.815h-139.696c-3.954 0-7.907 1.318-10.543 5.272l-72.484 79.073c-2.636 2.636-3.954 6.589-3.954 10.543v125.199c0 5.272 1.318 9.225 5.272 11.861l79.073 77.755c2.636 2.636 6.589 3.954 10.543 3.954h133.107c7.907 0 15.815-6.589 15.815-15.815 0-7.907-6.589-14.497-15.815-14.497h-127.835l-69.848-68.53v-114.656l63.259-69.848h133.107c9.225 0 15.815-6.589 15.815-14.497z" />
<glyph unicode="&#xe908;" horiz-adv-x="1058" d="M492.891 373.539c-1.318-19.768-15.815-35.583-35.583-38.219v-1.318c0-9.225-7.907-17.133-17.133-17.133s-17.133 7.907-17.133 17.133h-17.133c-9.225 0-17.133 7.907-17.133 17.133s7.907 17.133 17.133 17.133h42.172c5.272 0 9.225 2.636 9.225 3.954s-3.954 3.954-9.225 3.954h-17.133c-23.722-1.318-43.49 17.133-44.808 39.537 1.318 19.768 15.815 35.583 35.583 39.537v1.318c0 9.225 7.907 17.133 17.133 17.133s17.133-7.907 17.133-17.133h17.133c9.225 0 17.133-7.907 17.133-17.133s-7.907-17.133-17.133-17.133h-44.808c-5.272 0-9.225-2.636-9.225-3.954s3.954-3.954 9.225-3.954h19.768c23.722 1.318 43.49-17.133 44.808-40.855z" />
<glyph unicode="&#xe909;" horiz-adv-x="1058" d="M440.175 523.779c-69.848 0-127.835-56.669-127.835-127.835 0-69.848 56.669-127.835 127.835-127.835 69.848 0 127.835 56.669 127.835 127.835-1.318 71.166-57.987 127.835-127.835 127.835zM430.95 414.394h17.133c23.722 1.318 43.49-17.133 44.808-39.537-1.318-19.768-15.815-35.583-35.583-38.219v-1.318c0-9.225-7.907-17.133-17.133-17.133s-17.133 7.907-17.133 17.133h-17.133c-9.225 0-17.133 7.907-17.133 17.133s7.907 17.133 17.133 17.133h42.172c5.272 0 9.225 2.636 9.225 3.954s-3.954 3.954-9.225 3.954h-17.133c-23.722-1.318-43.49 17.133-44.808 39.537 1.318 19.768 15.815 35.583 35.583 39.537v1.318c0 9.225 7.907 17.133 17.133 17.133s17.133-7.907 17.133-17.133h17.133c9.225 0 17.133-7.907 17.133-17.133s-7.907-17.133-17.133-17.133h-44.808c-5.272 0-9.225-2.636-9.225-3.954 2.636-2.636 6.589-5.272 11.861-5.272z" />
<glyph unicode="&#xe90a;" horiz-adv-x="1058" d="M440.175 476.335c9.225 0 17.133-7.907 17.133-17.133h17.133c9.225 0 17.133-7.907 17.133-17.133s-7.907-17.133-17.133-17.133h-44.808c-5.272 0-9.225-2.636-9.225-3.954s3.954-3.954 9.225-3.954h18.45c23.722 1.318 43.49-17.133 44.808-39.537-1.318-19.768-15.815-35.583-35.583-38.219v-1.318c0-9.225-7.907-17.133-17.133-17.133s-17.133 7.907-17.133 17.133h-17.133c-9.225 0-17.133 7.907-17.133 17.133s7.907 17.133 17.133 17.133h42.172c5.272 0 9.225 2.636 9.225 3.954s-3.954 3.954-9.225 3.954h-17.133c-23.722-1.318-43.49 17.133-44.808 39.537 1.318 19.768 15.815 35.583 35.583 39.537v1.318c0 7.907 7.907 15.815 18.45 15.815z" />
<glyph unicode="&#xe90b;" horiz-adv-x="1008" d="M722.747 960h-605.091c-64.646 0-117.657-53.010-117.657-117.657v-603.798c0-64.646 53.010-117.657 117.657-117.657h184.889v33.616h-184.889c-46.545 0-84.040 37.495-84.040 84.040v284.444h108.606c10.343 1.293 18.101 9.051 16.808 19.394 0 1.293 0 3.879-1.293 5.172-15.515 33.616 0 73.697 34.909 89.212 33.616 15.515 73.697 0 89.212-34.909 7.758-16.808 7.758-36.202 0-54.303-3.879-9.051 0-19.394 7.758-23.273 2.586-1.293 5.172-1.293 6.465-1.293h108.606v-100.848c-5.172 1.293-11.636 1.293-16.808 1.293-55.596 0-100.848-45.253-100.848-100.848 0-40.081 23.273-76.283 60.768-91.798l12.929 31.030c-33.616 14.222-49.131 54.303-34.909 89.212 10.343 24.566 34.909 40.081 62.061 40.081 9.051 0 18.101-1.293 27.152-5.172s18.101 0 21.98 9.051c1.293 2.586 1.293 3.879 1.293 6.465v122.828h85.333c-1.293-5.172-1.293-11.636-1.293-16.808 0-47.838 33.616-89.212 80.162-99.556l6.465 32.323c-31.030 6.465-54.303 33.616-54.303 65.939 0 9.051 1.293 18.101 5.172 27.152s0 18.101-9.051 21.98c-2.586 1.293-3.879 1.293-6.465 1.293h-108.606v85.333c5.172-1.293 11.636-1.293 16.808-1.293 55.596 0 100.848 45.253 100.848 100.848s-45.253 100.848-100.848 100.848c-5.172 0-11.636 0-16.808-1.293v85.333h285.737c46.545 0 84.040-37.495 84.040-84.040v-285.737h-107.313c-9.051 0-16.808-7.758-16.808-16.808 0-2.586 0-5.172 1.293-6.465 3.879-9.051 5.172-18.101 5.172-27.152h33.616c0 5.172 0 11.636-1.293 16.808h102.141c9.051 0 16.808 7.758 16.808 16.808v302.545c1.293 64.646-50.424 117.657-116.364 117.657zM453.818 808.727c37.495 0 67.232-29.737 67.232-67.232s-29.737-67.232-67.232-67.232c-9.051 0-18.101 1.293-27.152 5.172s-18.101 0-21.98-9.051c-1.293-2.586-1.293-3.879-1.293-6.465v-106.020h-85.333c1.293 5.172 1.293 10.343 1.293 15.515v1.293c0 55.596-45.253 100.848-100.848 100.848s-100.848-45.253-100.848-100.848v-1.293c0-5.172 0-10.343 1.293-15.515h-85.333v284.444c0 46.545 37.495 84.040 84.040 84.040h285.737v-108.606c0-9.051 7.758-16.808 16.808-16.808 2.586 0 5.172 0 6.465 1.293 9.051 3.879 18.101 6.465 27.152 6.465z" />
<glyph unicode="&#xe90c;" horiz-adv-x="1008" d="M973.576 237.253l-140.929 96.97-54.303 144.808c-3.879 9.051-12.929 12.929-21.98 10.343 0 0 0 0-1.293 0l-109.899-47.838c-7.758-3.879-11.636-12.929-9.051-21.98 1.293-5.172 3.879-7.758 5.172-11.636s3.879-6.465 5.172-12.929c12.929-34.909-5.172-73.697-38.788-86.626-34.909-12.929-73.697 5.172-86.626 38.788-2.586 9.051-3.879 18.101-3.879 27.152s-6.465 16.808-15.515 18.101c-2.586 0-5.172 0-6.465-1.293l-116.364-43.96c-9.051-3.879-12.929-12.929-10.343-21.98l41.374-112.485c-5.172-1.293-10.343-2.586-16.808-5.172-51.717-19.394-78.869-77.576-59.475-130.586 19.394-51.717 77.576-78.869 130.586-59.475 5.172 1.293 10.343 3.879 15.515 7.758l29.737-80.162c3.879-9.051 12.929-12.929 21.98-10.343l166.788 64.646c10.343-21.98 29.737-40.081 53.010-47.838l10.343 32.323c-14.222 5.172-25.859 14.222-32.323 27.152l50.424 19.394c16.808-46.545 60.768-77.576 111.192-77.576v33.616c-46.545 0-84.040 37.495-84.040 84.040 0 3.879-1.293 9.051-5.172 11.636l-58.182 58.182c-9.051 9.051-9.051 21.98-2.586 32.323 3.879 5.172 10.343 9.051 18.101 10.343 6.465 0 14.222-2.586 19.394-7.758l117.657-117.657 23.273 23.273-34.909 34.909c9.051 25.859 7.758 53.010-1.293 78.869l-31.030 84.040 102.141-69.818c12.929-9.051 21.98-24.566 21.98-41.374v-215.919h32.323v217.212c0 27.152-12.929 53.010-34.909 68.525zM857.212 144.162l-54.303 54.303c-21.98 23.273-59.475 23.273-82.747 1.293-23.273-23.273-23.273-59.475-1.293-82.747 0 0 1.293-1.293 1.293-1.293l53.010-53.010-237.899-89.212-32.323 85.333c-2.586 5.172-6.465 9.051-11.636 10.343-1.293 0-2.586 0-3.879 0-3.879 0-9.051-1.293-11.636-5.172-27.152-25.859-69.818-24.566-95.677 2.586s-24.566 69.818 2.586 95.677c6.465 6.465 14.222 10.343 21.98 14.222 5.172 2.586 10.343 3.879 16.808 3.879 3.879 0 6.465 0 10.343 0 9.051 0 16.808 6.465 18.101 15.515 0 2.586 0 5.172-1.293 6.465l-43.96 117.657 80.162 29.737c10.343-54.303 63.354-90.505 117.657-80.162 5.172 1.293 11.636 2.586 16.808 5.172 51.717 19.394 78.869 77.576 59.475 130.586-1.293 3.879-2.586 7.758-3.879 10.343l77.576 34.909 100.848-267.636c3.879-11.636 5.172-24.566 3.879-38.788z" />
<glyph unicode="&#xe90d;" horiz-adv-x="1008" d="M521.051 741.495c0-37.495-29.737-67.232-67.232-67.232-9.051 0-18.101 1.293-27.152 5.172s-18.101 0-21.98-9.051c-1.293-2.586-1.293-3.879-1.293-6.465v-106.020h-85.333c1.293 5.172 1.293 10.343 1.293 15.515v1.293c0 55.596-45.253 100.848-100.848 100.848s-100.848-45.253-100.848-100.848v-1.293c0-5.172 0-10.343 1.293-15.515h-85.333v284.444c0 46.545 37.495 84.040 84.040 84.040h285.737v-108.606c0-9.051 7.758-16.808 16.808-16.808 2.586 0 5.172 0 6.465 1.293 9.051 3.879 18.101 5.172 27.152 5.172 37.495 1.293 67.232-28.444 67.232-65.939z" />
<glyph unicode="&#xe90e;" horiz-adv-x="1008" d="M857.212 144.162l-54.303 54.303c-21.98 23.273-59.475 23.273-82.747 1.293-23.273-23.273-23.273-59.475-1.293-82.747 0 0 1.293-1.293 1.293-1.293l53.010-53.010-237.899-89.212-32.323 85.333c-2.586 5.172-6.465 9.051-11.636 10.343-1.293 0-2.586 0-3.879 0-3.879 0-9.051-1.293-11.636-5.172-27.152-25.859-69.818-24.566-95.677 2.586s-24.566 69.818 2.586 95.677c6.465 6.465 14.222 10.343 21.98 14.222 5.172 2.586 10.343 3.879 16.808 3.879 3.879 0 6.465 0 10.343 0 9.051 0 16.808 6.465 18.101 15.515 0 2.586 0 5.172-1.293 6.465l-43.96 117.657 80.162 29.737c10.343-54.303 63.354-90.505 117.657-80.162 5.172 1.293 11.636 2.586 16.808 5.172 51.717 19.394 78.869 77.576 59.475 130.586-1.293 3.879-2.586 7.758-3.879 10.343l77.576 34.909 100.848-267.636c3.879-11.636 5.172-24.566 3.879-38.788z" />
<glyph unicode="&#xe90f;" horiz-adv-x="797" d="M234.24 606.72c0 0-126.72-471.040 377.6-450.56l-24.32-33.28v-163.84l-171.52 176.64-294.4-3.84c0 0-93.44-11.52-107.52 151.040 11.52 166.4 0 258.56 0 258.56s33.28 101.12 126.72 83.2c93.44-17.92 87.040 21.76 87.040 21.76l6.4-39.68z" />
<glyph unicode="&#xe910;" horiz-adv-x="797" d="M392.96 960v0c-79.36 0-151.040-46.080-185.6-116.48-19.2-40.96-2.56-90.88 38.4-110.080s90.88-2.56 110.080 38.4c6.4 14.080 20.48 21.76 34.56 23.040 21.76 0 39.68-16.64 40.96-38.4 0-17.92-10.24-33.28-26.88-38.4-57.6-17.92-96-71.68-96-131.84v-58.88c-1.28-46.080 34.56-84.48 79.36-85.76 1.28 0 3.84 0 5.12 0 43.52 1.28 79.36 35.84 80.64 79.36v46.080c76.8 33.28 125.44 111.36 122.88 194.56-2.56 110.080-92.16 198.4-203.52 198.4zM442.88 609.28v0c-2.56-1.28-3.84-1.28-6.4-2.56-7.68-5.12-12.8-14.080-12.8-23.040v-57.6c1.28-16.64-11.52-30.72-28.16-32s-30.72 11.52-32 28.16c0 1.28 0 2.56 0 3.84v58.88c0 37.12 24.32 70.4 60.16 81.92 38.4 12.8 64 49.92 62.72 90.88-2.56 49.92-43.52 88.32-93.44 88.32-35.84 0-66.56-20.48-81.92-52.48-6.4-15.36-24.32-23.040-39.68-16.64s-23.040 24.32-16.64 39.68c0 1.28 1.28 2.56 1.28 2.56 25.6 52.48 78.080 85.76 136.96 87.040h1.28c84.48 0 153.6-67.84 153.6-152.32-1.28-65.28-43.52-122.88-104.96-144.64z" />
<glyph unicode="&#xe911;" horiz-adv-x="797" d="M392.96 410.88c-46.080 0-83.2-37.12-83.2-83.2s37.12-83.2 83.2-83.2c46.080 0 83.2 37.12 83.2 83.2s-37.12 83.2-83.2 83.2zM392.96 296.96c-16.64 0-30.72 14.080-30.72 30.72s14.080 30.72 30.72 30.72c16.64 0 30.72-14.080 30.72-30.72s-14.080-30.72-30.72-30.72v0z" />
<glyph unicode="&#xe912;" horiz-adv-x="797" d="M0 533.76v-305.92c0-69.12 56.32-124.16 124.16-124.16h282.88l160-160c10.24-10.24 26.88-10.24 37.12 0 5.12 5.12 7.68 11.52 7.68 17.92v140.8h61.44c69.12 0 124.16 56.32 124.16 124.16v307.2c0 69.12-56.32 124.16-124.16 124.16h-16.64c-14.080 0-25.6-11.52-25.6-25.6s11.52-25.6 25.6-25.6h16.64c39.68 0 72.96-32 72.96-72.96v-305.92c0-39.68-32-71.68-72.96-71.68h-87.040c-14.080 0-25.6-11.52-25.6-25.6v-104.96l-122.88 122.88c-5.12 5.12-11.52 7.68-17.92 7.68h-294.4c-39.68 0-72.96 32-72.96 72.96v304.64c0 39.68 32 72.96 72.96 72.96h108.8c14.080 0 25.6 11.52 25.6 25.6s-11.52 25.6-25.6 25.6h-110.080c-67.84 0-124.16-55.040-124.16-124.16z" />
<glyph unicode="&#xe913;" horiz-adv-x="797" d="M546.56 755.2c0-65.28-42.24-124.16-103.68-145.92h-1.28c-1.28-1.28-3.84-1.28-5.12-2.56-7.68-5.12-12.8-14.080-12.8-23.040v-57.6c1.28-16.64-11.52-30.72-28.16-32s-30.72 11.52-32 28.16c0 1.28 0 2.56 0 3.84v58.88c0 37.12 24.32 70.4 60.16 81.92 38.4 12.8 64 49.92 62.72 90.88-2.56 49.92-43.52 88.32-93.44 88.32-35.84 0-66.56-20.48-81.92-52.48-6.4-15.36-24.32-23.040-39.68-16.64s-23.040 24.32-16.64 39.68c0 1.28 1.28 2.56 1.28 2.56 25.6 52.48 78.080 85.76 136.96 87.040h1.28c83.2 1.28 152.32-66.56 152.32-151.040z" />
<glyph unicode="&#xe914;" d="M341.76 464.64h170.24v-34.56h-170.24v34.56z" />
<glyph unicode="&#xe915;" d="M1007.36 720.64c8.96 0 16.64 7.68 16.64 16.64v69.12c0 7.68-5.12 14.080-11.52 16.64l-427.52 135.68c-3.84 1.28-6.4 1.28-10.24 0l-426.24-135.68c-7.68-2.56-11.52-8.96-11.52-16.64v-67.84c0-8.96 7.68-16.64 16.64-16.64h51.2v-120.32h34.56v119.040h67.84v-153.6h34.56v153.6h67.84v-153.6h34.56v153.6h67.84v-153.6h34.56v153.6h67.84v-170.24h34.56v170.24h67.84v-239.36h34.56v239.36h67.84v-323.84h-16.64v-34.56h188.16v-67.84h-171.52v-34.56h188.16c8.96 0 16.64 7.68 16.64 16.64v102.4c0 8.96-7.68 16.64-16.64 16.64h-51.2v325.12h51.2zM921.6 396.8h-67.84v323.84h67.84v-323.84zM170.24 755.2v38.4l409.6 130.56 409.6-130.56v-38.4h-819.2z" />
<glyph unicode="&#xe916;" d="M579.84 892.16c-28.16 0-51.2-23.040-51.2-51.2s23.040-51.2 51.2-51.2 51.2 23.040 51.2 51.2-23.040 51.2-51.2 51.2zM579.84 823.040c-8.96 0-16.64 7.68-16.64 16.64 0 10.24 7.68 17.92 16.64 17.92s16.64-7.68 16.64-16.64c1.28-10.24-6.4-17.92-16.64-17.92z" />
<glyph unicode="&#xe917;" d="M512 533.76h-170.24c-28.16 0-55.040-3.84-81.92-12.8-20.48 39.68-61.44 64-106.24 64-8.96 0-16.64-7.68-16.64-16.64v-126.72c-24.32-28.16-42.24-60.16-55.040-94.72h-65.28c-8.96-1.28-16.64-8.96-16.64-17.92v-136.96c0-8.96 7.68-16.64 16.64-16.64h65.28c11.52-34.56 30.72-67.84 55.040-94.72v-126.72c0-8.96 7.68-16.64 16.64-16.64h136.96c8.96 0 16.64 7.68 16.64 16.64v35.84c11.52-1.28 23.040-2.56 34.56-2.56h170.24c11.52 0 23.040 1.28 34.56 2.56v-35.84c0-8.96 7.68-16.64 16.64-16.64h136.96c8.96 0 16.64 7.68 16.64 16.64v126.72c33.28 37.12 55.040 83.2 64 133.12 2.56 6.4 3.84 14.080 3.84 21.76v25.6c0 149.76-121.6 272.64-272.64 272.64zM747.52 222.72c-5.12-10.24-17.92-15.36-28.16-12.8-11.52 2.56-19.2 12.8-19.2 24.32v25.6h-34.56v-25.6c0-33.28 26.88-60.16 60.16-60.16 3.84 0 6.4 0 10.24 1.28-11.52-29.44-26.88-55.040-48.64-78.080-2.56-3.84-5.12-7.68-5.12-11.52v-116.48h-102.4v39.68c0 5.12-2.56 10.24-6.4 12.8-3.84 3.84-8.96 3.84-14.080 3.84-15.36-2.56-32-5.12-47.36-5.12h-170.24c-16.64 0-32 1.28-47.36 5.12-5.12 1.28-10.24 0-14.080-3.84s-6.4-7.68-6.4-12.8v-39.68h-102.4v116.48c0 3.84-1.28 8.96-3.84 11.52-25.6 28.16-44.8 61.44-55.040 98.56-2.56 7.68-8.96 12.8-16.64 12.8h-61.44v102.4h60.16c7.68 0 14.080 5.12 16.64 12.8 10.24 37.12 29.44 70.4 55.040 98.56 2.56 3.84 3.84 7.68 3.84 11.52v115.2c29.44-6.4 53.76-26.88 64-55.040 1.28-3.84 5.12-7.68 8.96-10.24 3.84-1.28 8.96-2.56 12.8 0 26.88 10.24 56.32 15.36 85.76 15.36h170.24c131.84 0 239.36-107.52 239.36-239.36 0-12.8-1.28-24.32-3.84-37.12z" />
<glyph unicode="&#xe918;" d="M221.44 362.24c-28.16 0-51.2-23.040-51.2-51.2s23.040-51.2 51.2-51.2 51.2 23.040 51.2 51.2-23.040 51.2-51.2 51.2zM221.44 294.4c-8.96 0-16.64 7.68-16.64 16.64s7.68 16.64 16.64 16.64c8.96 0 16.64-7.68 16.64-16.64 1.28-8.96-6.4-16.64-16.64-16.64z" />
<glyph unicode="&#xe919;" d="M341.76 464.64h170.24v-34.56h-170.24v34.56z" />
<glyph unicode="&#xe91a;" d="M663.022 378.014l-427.281-162.072h-44.201l-29.468 29.468-42.728 101.663 204.8 79.563 294.676 5.894 44.201-29.468z" />
<glyph unicode="&#xe91b;" d="M909.076 117.226l94.296 10.314v422.86l-38.308 85.456-88.403 100.19h-23.574l55.988-159.125 17.681-73.669-36.835-38.308-54.515-25.047 73.669-73.669z" />
<glyph unicode="&#xe91c;" d="M89.876 871.597h132.604v-128.184h-132.604v128.184z" />
<glyph unicode="&#xe91d;" d="M853.088 778.774v95.77c0 47.148-38.308 85.456-85.456 85.456h-682.176c-47.148 0-85.456-38.308-85.456-85.456v-375.712c0-44.201 33.888-79.563 76.616-83.983l64.829-166.492c16.207-44.201 66.302-66.302 110.504-48.622l400.76 154.705c-27.994-72.196-19.154-153.232 20.627-219.534l10.314-16.207v-166.492c0-8.84 7.367-17.681 17.681-17.681h306.463c8.84 0 17.681 7.367 17.681 17.681v564.305c0 58.935-23.574 114.924-64.829 157.652l-107.557 104.61zM853.088 677.111l51.568-134.078c10.314-26.521-2.947-55.988-29.468-66.302l-29.468-11.787c4.42 10.314 7.367 22.101 7.367 33.888v178.279zM33.888 498.832v375.712c0 27.994 23.574 51.568 51.568 51.568h682.176c27.994 0 51.568-23.574 51.568-51.568v-375.712c0-2.947 0-5.894-1.473-8.84l-156.178 156.178c-35.361 33.888-91.35 33.888-126.711 0s-38.308-89.876-4.42-126.711l66.302-72.196h-511.263c-27.994 0-51.568 23.574-51.568 51.568zM253.422 413.376l-120.817-47.148-17.681 47.148h138.498zM238.688 230.676c-26.521-10.314-55.988 2.947-66.302 29.468l-29.468 75.142 203.327 78.089h281.416l22.101-23.574-411.073-159.125zM990.112-30.112h-272.576v137.024h272.576v-137.024zM990.112 140.8h-279.942l-7.367 11.787c-41.255 66.302-42.728 150.285-4.42 218.060 4.42 5.894 2.947 14.734-2.947 20.627l-139.971 153.232c-20.627 22.101-19.154 57.462 2.947 79.563s57.462 20.627 79.563-1.473l272.576-272.576 23.574 23.574-63.355 63.355 17.681 7.367c44.201 17.681 66.302 66.302 48.622 110.504l-57.462 150.285 55.988-55.988c35.361-35.361 54.515-82.509 55.988-132.604v-375.712z" />
<glyph unicode="&#xe91e;" d="M194.486 721.312c25.047 0 44.201 19.154 44.201 44.201v82.509c0 25.047-19.154 44.201-44.201 44.201h-82.509c-25.047 0-44.201-19.154-44.201-44.201v-82.509c0-25.047 19.154-44.201 44.201-44.201h82.509zM103.137 765.514v23.574h33.888v33.888h-33.888v25.047c0 4.42 4.42 8.84 8.84 8.84h82.509c5.894 0 10.314-4.42 10.314-10.314v-23.574h-33.888v-33.888h33.888v-23.574c0-5.894-4.42-10.314-10.314-10.314h-82.509c-4.42 0-8.84 4.42-8.84 10.314z" />
<glyph unicode="&#xe91f;" d="M85.456 669.744h67.776v-33.888h-67.776v33.888z" />
<glyph unicode="&#xe920;" d="M85.456 568.081h67.776v-33.888h-67.776v33.888z" />
<glyph unicode="&#xe921;" d="M391.919 568.081h67.776v-33.888h-67.776v33.888z" />
<glyph unicode="&#xe922;" d="M187.119 669.744h67.776v-33.888h-67.776v33.888z" />
<glyph unicode="&#xe923;" d="M290.256 669.744h67.776v-33.888h-67.776v33.888z" />
<glyph unicode="&#xe924;" d="M391.919 669.744h67.776v-33.888h-67.776v33.888z" />
<glyph unicode="&#xe925;" d="M717.537 874.544h33.888v-51.568h-33.888v51.568z" />
<glyph unicode="&#xe926;" d="M648.288 874.544h33.888v-51.568h-33.888v51.568z" />
<glyph unicode="&#xe927;" d="M580.512 874.544h33.888v-51.568h-33.888v51.568z" />
<glyph unicode="&#xe928;" d="M512.737 874.544h33.888v-51.568h-33.888v51.568z" />
<glyph unicode="&#xe929;" d="M751.424 73.024h33.888v-33.888h-33.888v33.888z" />
<glyph unicode="&#xe92a;" horiz-adv-x="1045" d="M877.529 402.633c0 7.777-6.481 15.554-15.554 15.554-7.777 0-15.554-6.481-15.554-15.554 0-10.37-9.073-19.443-19.443-19.443s-19.443 9.073-19.443 19.443c0 7.777-6.481 15.554-15.554 15.554-7.777 0-15.554-6.481-15.554-15.554 0-27.22 22.035-49.256 49.256-49.256 29.813 0 51.848 22.035 51.848 49.256z" />
<glyph unicode="&#xe92b;" horiz-adv-x="1045" d="M1004.557 415.595l-42.775 14.258c-5.185 1.296-10.37 6.481-11.666 11.666-9.073 28.516-23.332 55.737-40.182 80.365-2.592 3.889-6.481 9.073-10.37 12.962-5.185 6.481-11.666 12.962-16.851 19.443 3.889 16.851 6.481 34.997 7.777 51.848 1.296 11.666 1.296 23.332 1.296 33.701-1.296 38.886-7.777 60.922-23.332 69.995-7.777 3.889-33.701 16.851-168.506-44.071-2.592-1.296-6.481-3.889-9.073-5.185-9.073 2.592-18.147 5.185-28.516 6.481-1.296 0-2.592 0-3.889 1.296 10.37 24.628 16.851 50.552 18.147 76.476 0 7.777-6.481 15.554-14.258 15.554s-15.554-6.481-15.554-14.258c-2.592-44.071-20.739-85.549-51.848-116.658-19.443-18.147-40.182-32.405-63.514-41.478-40.182 5.185-81.661 5.185-121.843 0-23.332 9.073-45.367 22.035-63.514 41.478-33.701 33.701-51.848 77.772-51.848 125.732 0 46.663 18.147 92.030 51.848 125.732s77.772 51.848 125.732 51.848c46.663 0 92.030-18.147 125.732-51.848 12.962-12.962 24.628-28.516 32.405-45.367 3.889-7.777 12.962-10.37 20.739-6.481s10.37 12.962 6.481 20.739c-10.37 19.443-23.332 37.59-38.886 53.144-38.886 38.886-90.734 60.922-146.471 60.922-57.033-3.889-108.881-25.924-147.767-64.81s-60.922-90.734-60.922-146.471c0-55.737 22.035-107.585 60.922-146.471 11.666-11.666 23.332-20.739 36.294-28.516-9.073-2.592-19.443-5.185-28.516-7.777-7.777-2.592-11.666-11.666-9.073-19.443s11.666-11.666 19.443-9.073c82.957 27.22 173.691 27.22 256.648 0 1.296 0 2.592-1.296 5.185-1.296 6.481 0 11.666 3.889 14.258 10.37 2.592 7.777-1.296 16.851-9.073 19.443-9.073 2.592-18.147 6.481-28.516 7.777 12.962 7.777 24.628 18.147 36.294 28.516 10.37 10.37 19.443 20.739 25.924 32.405 3.889-1.296 7.777-1.296 12.962-2.592s10.37-2.592 16.851-3.889c0-1.296 0-1.296 0-2.592-1.296-6.481-2.592-14.258-3.889-20.739-3.889-27.22-1.296-50.552 5.185-72.587 7.777-23.332 20.739-42.775 40.182-57.033 23.332-16.851 50.552-23.332 75.18-23.332 18.147 0 36.294 3.889 47.959 11.666 14.258 7.777 25.924 24.628 36.294 50.552 3.889-5.185 9.073-10.37 12.962-15.554 1.296-1.296 2.592-2.592 3.889-5.185 14.258-20.739 24.628-42.775 32.405-66.106 5.185-15.554 16.851-27.22 31.109-31.109l42.775-14.258c11.666-3.889 19.443-14.258 19.443-25.924v-71.291c0-11.666-7.777-22.035-19.443-25.924l-68.699-22.035c-3.889-1.296-7.777-2.592-10.37-5.185-6.481-3.889-11.666-9.073-15.554-15.554-27.22-46.663-69.995-85.549-127.028-115.362-6.481-3.889-11.666-9.073-12.962-16.851l-22.035-116.658c-1.296-2.592-3.889-5.185-6.481-5.185h-72.587c-3.889 0-6.481 2.592-6.481 5.185l-11.666 64.81c-2.592 12.962-14.258 20.739-27.22 19.443-31.109-5.185-62.218-6.481-94.623-6.481-23.332 0-46.663 1.296-69.995 3.889-12.962 1.296-24.628-6.481-25.924-19.443l-11.666-60.922c0-2.592-3.889-5.185-6.481-5.185h-71.291c-3.889 0-6.481 2.592-6.481 5.185l-20.739 110.177c-1.296 6.481-5.185 12.962-11.666 16.851-97.215 51.848-147.767 138.694-147.767 250.167 0 55.737 11.666 104.992 34.997 146.471 0 1.296 1.296 1.296 1.296 2.592 23.332 38.886 55.737 71.291 98.511 95.919 7.777 3.889 9.073 12.962 5.185 20.739s-12.962 10.37-20.739 5.185c-49.256-28.516-86.846-66.106-111.473-111.473-18.147-31.109-29.813-66.106-34.997-104.992-1.296 0-2.592 0-3.889 0 0 10.37-1.296 20.739-5.185 29.813-9.073 22.035-27.22 37.59-46.663 40.182-15.554 2.592-29.813-3.889-40.182-18.147-14.258-19.443-11.666-33.701-7.777-44.071 7.777-15.554 27.22-27.22 59.625-33.701-1.296-1.296-1.296-2.592-2.592-3.889-19.443-24.628-41.478-29.813-57.033-29.813-9.073 0-15.554-7.777-15.554-15.554 0-9.073 6.481-15.554 15.554-15.554h3.889c18.147 0 49.256 6.481 77.772 42.775 5.185 5.185 7.777 11.666 11.666 18.147 2.592 0 5.185 0 7.777-1.296 0-7.777-1.296-16.851-1.296-24.628 0-63.514 15.554-119.251 45.367-167.21 27.22-44.071 66.106-80.365 116.658-107.585l20.739-107.585c3.889-18.147 18.147-29.813 36.294-29.813h71.291c18.147 0 33.701 12.962 36.294 29.813l10.37 55.737c22.035-2.592 44.071-3.889 67.403-3.889 31.109 0 62.218 2.592 93.327 6.481l11.666-58.329c0-16.851 15.554-29.813 33.701-29.813h71.291c18.147 0 33.701 12.962 36.294 29.813l22.035 114.066c60.922 32.405 106.289 73.884 136.101 125.732 2.592 3.889 5.185 6.481 9.073 7.777l3.889 1.296 64.81 20.739c23.332 7.777 40.182 29.813 40.182 54.441v71.291c0 24.628-15.554 46.663-40.182 54.441zM859.382 597.063c-1.296-6.481-1.296-14.258-2.592-20.739-7.777-41.478-20.739-73.884-33.701-81.661-18.147-10.37-59.625-11.666-90.734 10.37-24.628 18.147-36.294 47.959-33.701 86.846 0 10.37 1.296 20.739 3.889 32.405 1.296 5.185 5.185 10.37 10.37 12.962 76.476 34.997 120.547 46.663 136.101 46.663 2.592 0 3.889 0 5.185-1.296 5.185-6.481 11.666-34.997 5.185-85.549zM42.775 427.261c-1.296 2.592 2.592 9.073 5.185 11.666 3.889 5.185 6.481 6.481 10.37 6.481 0 0 1.296 0 1.296 0 6.481-1.296 16.851-9.073 22.035-22.035 1.296-2.592 2.592-7.777 2.592-14.258-22.035 5.185-37.59 11.666-41.478 18.147z" />
<glyph unicode="&#xe92c;" horiz-adv-x="1045" d="M477.003 642.43c3.889 0 7.777 2.592 7.777 6.481v9.073c28.516 3.889 49.256 22.035 49.256 55.737 0 36.294-25.924 47.959-49.256 57.033v54.441c18.147-1.296 25.924-10.37 32.405-10.37 7.777 0 11.666 10.37 11.666 15.554 0 12.962-25.924 18.147-44.071 19.443v6.481c0 2.592-3.889 6.481-7.777 6.481-5.185 0-7.777-2.592-7.777-6.481v-7.777c-25.924-2.592-50.552-15.554-50.552-49.256s27.22-44.071 50.552-53.144v-63.514c-27.22 2.592-34.997 20.739-42.775 20.739-6.481 0-12.962-9.073-12.962-15.554 0-12.962 22.035-31.109 55.737-31.109v-7.777c0-3.889 3.889-6.481 7.777-6.481zM483.484 739.646c12.962-5.185 23.332-12.962 23.332-29.813 0-15.554-9.073-23.332-23.332-25.924v55.737zM445.894 801.863c0 14.258 10.37 20.739 25.924 22.035v-49.256c-14.258 5.185-25.924 11.666-25.924 27.22z" />
<glyph unicode="&#xe92d;" horiz-adv-x="1045" d="M292.942 99.322c6.481-3.889 10.37-9.073 11.666-16.851l20.739-110.177c0-3.889 3.889-5.185 6.481-5.185h71.291c3.889 0 6.481 2.592 6.481 5.185l11.666 60.922c2.592 11.666 14.258 20.739 25.924 19.443 22.035-2.592 45.367-3.889 69.995-3.889 32.405 0 63.514 2.592 94.623 6.481 12.962 1.296 24.628-6.481 27.22-19.443l11.666-64.81c0-2.592 3.889-5.185 6.481-5.185h71.291c3.889 0 6.481 2.592 6.481 5.185l22.035 116.658c1.296 7.777 6.481 12.962 12.962 16.851 57.033 29.813 99.808 68.699 127.028 115.362 3.889 6.481 9.073 11.666 15.554 15.554v0c-496.446-285.165-732.354 252.759-734.947 257.944-23.332-41.478-34.997-90.734-34.997-146.471 2.592-108.881 54.441-195.727 150.359-247.575z" />
<glyph unicode="&#xe92e;" horiz-adv-x="1045" d="M856.79 576.324c-7.777-41.478-20.739-73.884-33.701-81.661-18.147-10.37-59.625-11.666-90.734 10.37-24.628 18.147-36.294 47.959-33.701 86.846 33.701-23.332 99.808-55.737 158.137-15.554z" />
<glyph unicode="&#xe92f;" d="M511.362 944.697c369.813 0 498.61-343.034 498.61-343.034v343.034h-498.61z" />
<glyph unicode="&#xe930;" d="M286.924 3.587c0 0 89.265 237.191 341.758 237.191h297.126c0 0 59.935-73.963-29.33-103.293 0 0 44.633-73.963-73.963-103.293 0 0 44.633-73.963-59.935-89.265-103.293-15.303-355.786 0-355.786 0s-30.605-16.578-119.87 58.66z" />
<glyph unicode="&#xe931;" d="M164.503 44.394c-3.826 3.826-8.927 6.376-14.027 6.376s-10.202-2.55-14.027-6.376c-3.826-3.826-6.376-8.927-6.376-14.027s2.55-10.202 6.376-14.027c3.826-3.826 8.927-6.376 14.027-6.376s10.202 2.55 14.027 6.376c3.826 3.826 6.376 8.927 6.376 14.027s-2.55 10.202-6.376 14.027z" />
<glyph unicode="&#xe932;" d="M150.476 17.614c-3.826 0-6.376 1.275-8.927 3.826s-3.826 5.101-3.826 8.927c0 3.826 1.275 6.376 3.826 8.927s5.101 3.826 8.927 3.826 6.376-1.275 8.927-3.826c2.55-2.55 3.826-5.101 3.826-8.927s-1.275-6.376-3.826-8.927c-2.55-2.55-5.101-3.826-8.927-3.826z" />
<glyph unicode="&#xe933;" d="M944.936 596.563c-3.826 3.826-8.927 6.376-14.027 6.376s-10.202-2.55-14.027-6.376c-3.826-3.826-6.376-8.927-6.376-14.027s2.55-10.202 6.376-14.027c3.826-3.826 8.927-6.376 14.027-6.376s10.202 2.55 14.027 6.376c3.826 3.826 6.376 8.927 6.376 14.027s-2.55 10.202-6.376 14.027z" />
<glyph unicode="&#xe934;" d="M930.909 568.508c-3.826 0-6.376 1.275-8.927 3.826s-3.826 5.101-3.826 8.927c0 3.826 1.275 6.376 3.826 8.927s5.101 3.826 8.927 3.826c3.826 0 6.376-1.275 8.927-3.826s3.826-5.101 3.826-8.927c0-3.826-1.275-6.376-3.826-8.927-2.55-1.275-6.376-3.826-8.927-3.826z" />
<glyph unicode="&#xe935;" d="M1020.174 956.174c-2.55 2.55-6.376 3.826-8.927 3.826h-499.885c-5.101 0-8.927-2.55-11.477-7.651-1.275-1.275-1.275-2.55-1.275-5.101v-63.761l-197.659-53.559c-6.376-2.55-11.477-8.927-8.927-15.303l100.742-376.189-95.641-95.641-5.101 7.651c-10.202 14.027-26.78 22.954-44.633 22.954h-193.833c-29.33 0-53.559-22.954-53.559-53.559v-330.281c0-29.33 24.229-53.559 53.559-53.559h195.108c24.229 0 45.908 16.578 52.284 40.807l2.55 11.477 33.156-29.33c16.578-15.303 39.532-22.954 62.486-22.954h612.105c6.376 0 12.752 6.376 12.752 12.752v998.496c0 3.826-1.275 6.376-3.826 8.927zM267.796-10.441c0-11.477-8.927-20.403-20.403-20.403h-193.833c-11.477 0-20.403 8.927-20.403 20.403v330.281c0 11.477 8.927 20.403 20.403 20.403h76.513v-233.365c0-11.477 8.927-20.403 20.403-20.403s20.403 8.927 20.403 20.403v233.365h76.513c11.477 0 20.403-8.927 20.403-20.403v-330.281zM320.080 808.249l178.531 48.458v-90.54l-19.128-5.101c-2.55-1.275-6.376-2.55-7.651-6.376-1.275-2.55-2.55-6.376-1.275-10.202 3.826-16.578 2.55-33.156-6.376-47.183s-21.679-24.229-36.981-29.33c-3.826-1.275-6.376-2.55-7.651-6.376-1.275-2.55-2.55-6.376-1.275-10.202l81.614-302.227h-56.11l-22.954 89.265c0 1.275-1.275 3.826-2.55 5.101l-1.275 1.275-96.917 363.437zM498.61 704.956v-256.319l-14.027 57.385-38.257 142.824 5.101 2.55c14.027 7.651 25.504 17.853 34.431 31.88l12.752 21.679zM308.603 308.364l87.99 87.99 16.578-62.486c2.55-8.927 10.202-15.303 19.128-15.303h399.143c15.303 0 28.055-12.752 28.055-28.055s-12.752-28.055-28.055-28.055h-204.035c-11.477 0-20.403-8.927-20.403-20.403 0 0 0-1.275 0-1.275 0-10.202 8.927-19.128 20.403-19.128h267.796c15.303 0 28.055-12.752 28.055-28.055s-12.752-28.055-28.055-28.055h-267.796c-11.477 0-20.403-8.927-20.403-20.403s8.927-20.403 20.403-20.403h224.438c15.303 0 28.055-12.752 28.055-28.055s-12.752-28.055-28.055-28.055h-224.438c-11.477 0-20.403-8.927-20.403-20.403s8.927-20.403 20.403-20.403h155.577c15.303 0 28.055-12.752 28.055-28.055s-12.752-28.055-28.055-28.055h-383.841c-15.303 0-29.33 5.101-40.807 15.303l-48.458 43.357v277.998zM998.496-38.496h-164.503l5.101 10.202c3.826 7.651 5.101 16.578 5.101 25.504s-2.55 17.853-5.101 25.504l-5.101 10.202h17.853c34.431 0 61.21 28.055 61.21 61.21 0 8.927-2.55 19.128-6.376 28.055l-3.826 8.927 8.927 2.55c26.78 7.651 44.633 31.88 44.633 59.935 0 12.752-3.826 25.504-12.752 36.981v0 260.144c0 7.651-6.376 12.752-12.752 12.752-7.651 0-12.752-6.376-12.752-12.752v-239.741l-8.927 2.55c-3.826 1.275-8.927 1.275-14.027 1.275h-11.477l5.101 10.202c3.826 7.651 5.101 16.578 5.101 25.504 0 34.431-28.055 61.21-61.21 61.21h-33.156l-2.55 14.027c33.156 14.027 54.834 47.183 54.834 82.889 0 49.733-40.807 89.265-89.265 89.265s-89.265-40.807-89.265-89.265c0-35.706 21.679-68.862 54.834-82.889l-2.55-14.027h-118.595v399.143l6.376 1.275c33.156 7.651 59.935 33.156 67.587 67.587l1.275 6.376h164.503l1.275-6.376c7.651-33.156 33.156-59.935 67.587-67.587l6.376-1.275v-68.862c0-7.651 6.376-12.752 12.752-12.752 7.651 0 12.752 6.376 12.752 12.752v81.614c0 7.651-5.101 12.752-12.752 12.752-34.431 0-62.486 28.055-62.486 62.486 0 7.651-6.376 12.752-12.752 12.752h-192.558c-7.651 0-12.752-6.376-12.752-12.752 0-34.431-28.055-62.486-62.486-62.486-7.651 0-12.752-5.101-12.752-12.752v-411.895h-54.834v582.775h473.106v-972.991zM761.305 383.601c-35.706 0-63.761 28.055-63.761 63.761s28.055 63.761 63.761 63.761 63.761-28.055 63.761-63.761-28.055-63.761-63.761-63.761z" />
<glyph unicode="&#xe936;" d="M1020.174 956.174c-2.55 2.55-6.376 3.826-8.927 3.826h-499.885c-5.101 0-8.927-2.55-11.477-7.651-1.275-1.275-1.275-2.55-1.275-5.101v-63.761l-197.659-53.559c-6.376-2.55-11.477-8.927-8.927-15.303l100.742-376.189-95.641-95.641-5.101 7.651c-10.202 14.027-26.78 22.954-44.633 22.954h-193.833c-29.33 0-53.559-22.954-53.559-53.559v-330.281c0-29.33 24.229-53.559 53.559-53.559h195.108c24.229 0 45.908 16.578 52.284 40.807l2.55 11.477 33.156-29.33c16.578-15.303 39.532-22.954 62.486-22.954h612.105c6.376 0 12.752 6.376 12.752 12.752v998.496c0 3.826-1.275 6.376-3.826 8.927zM275.447-10.441c0-15.303-12.752-28.055-28.055-28.055h-193.833c-15.303 0-28.055 12.752-28.055 28.055v330.281c0 15.303 12.752 28.055 28.055 28.055h84.164v-241.016c0-6.376 6.376-12.752 12.752-12.752 7.651 0 12.752 6.376 12.752 12.752v241.016h84.164c15.303 0 28.055-12.752 28.055-28.055v-330.281zM320.080 808.249l178.531 48.458v-90.54l-19.128-5.101c-2.55-1.275-6.376-2.55-7.651-6.376-1.275-2.55-2.55-6.376-1.275-10.202 3.826-16.578 2.55-33.156-6.376-47.183s-21.679-24.229-36.981-29.33c-3.826-1.275-6.376-2.55-7.651-6.376-1.275-2.55-2.55-6.376-1.275-10.202l81.614-302.227h-56.11l-22.954 89.265c0 1.275-1.275 3.826-2.55 5.101l-1.275 1.275-96.917 363.437zM498.61 704.956v-257.594l-14.027 58.66-38.257 142.824 5.101 2.55c14.027 7.651 25.504 17.853 34.431 31.88l12.752 21.679zM308.603 308.364l87.99 87.99 16.578-62.486c2.55-8.927 10.202-15.303 19.128-15.303h399.143c15.303 0 28.055-12.752 28.055-28.055s-12.752-28.055-28.055-28.055h-204.035c-11.477 0-20.403-8.927-20.403-20.403 0 0 0-1.275 0-1.275 0-10.202 8.927-19.128 20.403-19.128h267.796c15.303 0 28.055-12.752 28.055-28.055s-12.752-28.055-28.055-28.055h-267.796c-11.477 0-20.403-8.927-20.403-20.403s8.927-20.403 20.403-20.403h224.438c15.303 0 28.055-12.752 28.055-28.055s-12.752-28.055-28.055-28.055h-224.438c-11.477 0-20.403-8.927-20.403-20.403s8.927-20.403 20.403-20.403h155.577c15.303 0 28.055-12.752 28.055-28.055s-12.752-28.055-28.055-28.055h-383.841c-15.303 0-29.33 5.101-40.807 15.303l-48.458 43.357v277.998zM998.496-38.496h-164.503l5.101 10.202c3.826 7.651 5.101 16.578 5.101 25.504s-2.55 17.853-5.101 25.504l-5.101 10.202h17.853c34.431 0 61.21 28.055 61.21 61.21 0 8.927-2.55 19.128-6.376 28.055l-3.826 8.927 8.927 2.55c26.78 7.651 44.633 31.88 44.633 59.935 0 12.752-3.826 25.504-12.752 36.981v0 260.144c0 7.651-6.376 12.752-12.752 12.752-7.651 0-12.752-6.376-12.752-12.752v-239.741l-8.927 2.55c-3.826 1.275-8.927 1.275-14.027 1.275h-11.477l5.101 10.202c3.826 7.651 5.101 16.578 5.101 25.504 0 34.431-28.055 61.21-61.21 61.21h-33.156l-2.55 14.027c33.156 14.027 54.834 47.183 54.834 82.889 0 49.733-40.807 89.265-89.265 89.265s-89.265-40.807-89.265-89.265c0-35.706 21.679-68.862 54.834-82.889l-2.55-14.027h-118.595v399.143l6.376 1.275c33.156 7.651 59.935 33.156 67.587 67.587l1.275 6.376h164.503l1.275-6.376c7.651-33.156 33.156-59.935 67.587-67.587l6.376-1.275v-68.862c0-7.651 6.376-12.752 12.752-12.752 7.651 0 12.752 6.376 12.752 12.752v81.614c0 7.651-5.101 12.752-12.752 12.752-34.431 0-62.486 28.055-62.486 62.486 0 7.651-6.376 12.752-12.752 12.752h-192.558c-7.651 0-12.752-6.376-12.752-12.752 0-34.431-28.055-62.486-62.486-62.486-7.651 0-12.752-5.101-12.752-12.752v-411.895h-54.834v582.775h473.106v-972.991zM761.305 383.601c-35.706 0-63.761 28.055-63.761 63.761s28.055 63.761 63.761 63.761 63.761-28.055 63.761-63.761-28.055-63.761-63.761-63.761z" />
<glyph unicode="&#xe937;" d="M499.885 351.721h-56.11l-22.954 86.715c0 1.275-1.275 3.826-2.55 5.101l-1.275 1.275-96.917 363.437 178.531 48.458v-90.54l-19.128-5.101c-2.55-1.275-6.376-2.55-7.651-6.376-1.275-2.55-2.55-6.376-1.275-10.202 3.826-16.578 2.55-33.156-6.376-47.183s-21.679-24.229-36.981-29.33c-3.826-1.275-6.376-2.55-7.651-6.376-1.275-2.55-2.55-6.376-1.275-10.202l81.614-299.676z" />
<glyph unicode="&#xe938;" d="M825.066 448.638c0-35.706-28.055-63.761-63.761-63.761s-63.761 28.055-63.761 63.761 28.055 63.761 63.761 63.761 63.761-29.33 63.761-63.761z" />
<glyph unicode="&#xe939;" d="M662.974 693.497v-157.538h-354.462v157.538c0 94.523 78.769 171.979 177.231 171.979 97.149 0 177.231-77.456 177.231-171.979z" />
<glyph unicode="&#xe93a;" d="M216.615 314.092c-35.446 0-64.328-28.882-64.328-64.328s28.882-64.328 64.328-64.328 64.328 28.882 64.328 64.328c0 35.446-28.882 64.328-64.328 64.328z" />
<glyph unicode="&#xe93b;" d="M370.215 314.092c-35.446 0-64.328-28.882-64.328-64.328s28.882-64.328 64.328-64.328 64.328 28.882 64.328 64.328c0 35.446-28.882 64.328-64.328 64.328z" />
<glyph unicode="&#xe93c;" d="M523.815 314.092c-35.446 0-64.328-28.882-64.328-64.328s28.882-64.328 64.328-64.328 64.328 28.882 64.328 64.328c0 35.446-28.882 64.328-64.328 64.328z" />
<glyph unicode="&#xe93d;" d="M680.041 314.092c-35.446 0-64.328-28.882-64.328-64.328s28.882-64.328 64.328-64.328 64.328 28.882 64.328 64.328c0 35.446-28.882 64.328-64.328 64.328z" />
<glyph unicode="&#xe93e;" d="M680.041 304.903c-22.318 0-40.697-18.379-40.697-40.697s18.379-40.697 40.697-40.697 40.697 18.379 40.697 40.697c0 22.318-18.379 40.697-40.697 40.697z" />
<glyph unicode="&#xe93f;" d="M758.81 572.718c-5.251 1.313-11.815 1.313-17.067 1.313h-63.015v157.538c1.313 126.031-103.713 228.431-232.369 228.431s-233.682-102.4-233.682-228.431v-157.538h-63.015c-14.441 0-27.569-2.626-40.697-5.251-63.015-18.379-108.964-76.144-108.964-145.723v-336.082c0-82.708 68.267-150.974 150.974-150.974h324.267c15.754 0 27.569 11.815 27.569 27.569s-11.815 27.569-27.569 27.569h-324.267c-52.513 0-95.836 43.323-95.836 95.836v336.082c0 52.513 43.323 95.836 95.836 95.836h590.769c52.513 0 95.836-43.323 95.836-95.836v-82.708c0-15.754 11.815-27.569 27.569-27.569s27.569 11.815 27.569 27.569v82.708c0 77.456-59.077 141.785-133.908 149.662zM269.128 732.882c0 94.523 78.769 171.979 177.231 171.979 97.149 0 177.231-77.456 177.231-171.979v-157.538h-354.462v157.538z" />
<glyph unicode="&#xe940;" d="M1024 276.021c-1.313 7.877-5.251 13.128-11.815 18.379-5.251 3.938-10.503 5.251-15.754 5.251-9.19 0-17.067-3.938-22.318-11.815l-203.487-283.569c-9.19-10.503-19.692-11.815-24.944-13.128h-2.626c-6.564 0-15.754 1.313-24.944 10.503l-105.026 102.4c-5.251 5.251-11.815 7.877-19.692 7.877s-14.441-2.626-19.692-7.877c-5.251-5.251-7.877-11.815-7.877-19.692s2.626-14.441 7.877-19.692l105.026-103.713c17.067-17.067 39.385-24.944 64.328-24.944 2.626 0 3.938 0 6.564 0 26.256 1.313 49.887 14.441 65.641 34.133l1.313 1.313 203.487 283.569c2.626 6.564 5.251 13.128 3.938 21.005z" />
<glyph unicode="&#xe941;" d="M523.815 304.903c-22.318 0-40.697-18.379-40.697-40.697s18.379-40.697 40.697-40.697 40.697 18.379 40.697 40.697c1.313 22.318-17.067 40.697-40.697 40.697z" />
<glyph unicode="&#xe942;" d="M216.615 304.903c-22.318 0-40.697-18.379-40.697-40.697s18.379-40.697 40.697-40.697 40.697 18.379 40.697 40.697c0 22.318-18.379 40.697-40.697 40.697z" />
<glyph unicode="&#xe943;" d="M370.215 304.903c-22.318 0-40.697-18.379-40.697-40.697s18.379-40.697 40.697-40.697 40.697 18.379 40.697 40.697c0 22.318-18.379 40.697-40.697 40.697z" />
<glyph unicode="&#xe944;" horiz-adv-x="1044" d="M877.714 402.651c0 8.777-7.314 14.629-14.629 14.629-8.777 0-14.629-7.314-14.629-14.629 0-10.24-8.777-19.017-19.017-19.017s-19.017 8.777-19.017 19.017c0 8.777-7.314 14.629-14.629 14.629s-14.629-7.314-14.629-14.629c0-27.794 21.943-49.737 49.737-49.737 24.869 0 46.811 21.943 46.811 49.737z" />
<glyph unicode="&#xe945;" horiz-adv-x="1044" d="M1004.983 415.817l-42.423 13.166c-5.851 1.463-10.24 5.851-11.703 11.703-8.777 29.257-23.406 55.589-40.96 80.457-2.926 4.389-5.851 8.777-10.24 13.166-5.851 7.314-11.703 13.166-17.554 19.017 4.389 16.091 5.851 35.109 8.777 52.663 1.463 11.703 1.463 23.406 1.463 33.646 0 39.497-8.777 61.44-23.406 70.217-8.777 4.389-33.646 17.554-169.691-45.349-2.926-1.463-5.851-2.926-8.777-5.851-8.777 2.926-19.017 4.389-27.794 7.314-1.463 0-2.926 0-2.926 0 11.703 23.406 17.554 49.737 19.017 77.531 0 8.777-5.851 16.091-14.629 16.091s-16.091-5.851-16.091-14.629c-1.463-43.886-20.48-86.309-51.2-117.029-19.017-19.017-40.96-33.646-64.366-40.96-40.96 5.851-81.92 5.851-122.88 0-23.406 8.777-45.349 21.943-64.366 40.96-33.646 33.646-51.2 77.531-51.2 125.806s19.017 92.16 51.2 125.806c33.646 33.646 77.531 51.2 125.806 51.2 46.811 0 92.16-19.017 125.806-51.2 13.166-13.166 24.869-29.257 33.646-45.349 4.389-7.314 13.166-10.24 20.48-7.314 7.314 4.389 10.24 13.166 7.314 20.48-10.24 19.017-23.406 38.034-38.034 52.663-42.423 38.034-93.623 59.977-149.211 59.977s-108.251-21.943-146.286-61.44c-39.497-39.497-61.44-90.697-61.44-146.286s21.943-108.251 61.44-146.286c11.703-11.703 23.406-20.48 36.571-29.257-8.777-2.926-19.017-5.851-27.794-8.777-7.314-2.926-11.703-11.703-10.24-19.017 2.926-7.314 11.703-11.703 19.017-10.24 83.383 27.794 174.080 27.794 257.463 0 1.463 0 2.926-1.463 4.389-1.463 5.851 0 11.703 4.389 14.629 10.24 2.926 7.314-1.463 16.091-10.24 19.017s-19.017 5.851-27.794 8.777c13.166 8.777 24.869 17.554 36.571 29.257 10.24 10.24 19.017 20.48 26.331 32.183 4.389-1.463 8.777-1.463 13.166-2.926 5.851-1.463 10.24-2.926 16.091-4.389 0 0 0-1.463 0-1.463-1.463-7.314-2.926-13.166-2.926-20.48-2.926-26.331-1.463-51.2 4.389-71.68 7.314-23.406 20.48-42.423 40.96-57.051 23.406-16.091 49.737-23.406 74.606-23.406 19.017 0 36.571 4.389 48.274 11.703 14.629 8.777 26.331 24.869 35.109 51.2 4.389-5.851 8.777-10.24 13.166-16.091 1.463-1.463 2.926-2.926 2.926-4.389 14.629-20.48 24.869-42.423 32.183-65.829 4.389-14.629 16.091-26.331 30.72-32.183l42.423-13.166c11.703-2.926 19.017-14.629 19.017-26.331v-70.217c0-11.703-7.314-21.943-19.017-26.331l-68.754-21.943c-4.389-1.463-7.314-2.926-10.24-5.851-5.851-4.389-11.703-8.777-14.629-16.091-27.794-46.811-70.217-84.846-127.269-115.566-7.314-2.926-11.703-10.24-13.166-16.091l-21.943-117.029c0-2.926-2.926-5.851-7.314-5.851h-71.68c-2.926 0-5.851 2.926-7.314 5.851l-11.703 64.366c-2.926 13.166-14.629 20.48-27.794 19.017-30.72-4.389-62.903-7.314-95.086-7.314-23.406 0-46.811 1.463-70.217 4.389-13.166 1.463-23.406-7.314-26.331-19.017l-11.703-61.44c0-2.926-2.926-5.851-7.314-5.851h-71.68c-2.926 0-5.851 2.926-7.314 5.851l-17.554 111.177c-1.463 7.314-5.851 13.166-11.703 16.091-96.549 51.2-147.749 138.971-147.749 250.149 0 55.589 11.703 103.863 35.109 146.286 0 1.463 1.463 1.463 1.463 2.926 23.406 39.497 55.589 71.68 99.474 96.549 7.314 4.389 10.24 13.166 5.851 20.48s-13.166 10.24-20.48 5.851c-49.737-27.794-86.309-65.829-111.177-111.177-17.554-30.72-29.257-67.291-35.109-105.326-1.463 0-2.926 0-4.389 0 0 10.24-1.463 20.48-5.851 30.72-8.777 21.943-26.331 38.034-46.811 40.96-14.629 1.463-29.257-4.389-39.497-17.554-14.629-19.017-11.703-33.646-7.314-43.886 7.314-16.091 27.794-26.331 59.977-33.646-1.463-1.463-1.463-2.926-2.926-4.389-19.017-24.869-42.423-29.257-57.051-30.72-10.24 0-17.554-7.314-17.554-14.629 0-8.777 7.314-16.091 14.629-16.091h2.926c19.017 0 48.274 7.314 77.531 42.423 4.389 5.851 8.777 11.703 11.703 17.554 2.926 0 5.851 0 8.777-1.463 0-8.777-1.463-16.091-1.463-24.869 0-62.903 14.629-119.954 45.349-168.229 27.794-43.886 67.291-80.457 117.029-108.251l20.48-106.789c2.926-17.554 19.017-30.72 36.571-30.72h71.68c17.554 0 33.646 13.166 36.571 30.72l10.24 55.589c21.943-2.926 43.886-2.926 67.291-2.926 30.72 0 62.903 1.463 93.623 5.851l11.703-58.514c2.926-17.554 19.017-30.72 36.571-30.72h71.68c17.554 0 33.646 13.166 36.571 30.72l21.943 114.103c59.977 32.183 106.789 74.606 136.046 125.806 1.463 2.926 5.851 5.851 8.777 7.314l4.389 1.463 65.829 20.48c23.406 7.314 39.497 29.257 39.497 54.126v70.217c-1.463 27.794-17.554 49.737-40.96 57.051zM860.16 595.749c-1.463-7.314-1.463-13.166-2.926-20.48-7.314-40.96-20.48-73.143-33.646-81.92-17.554-10.24-59.977-11.703-90.697 10.24-24.869 17.554-36.571 48.274-33.646 86.309 0 10.24 1.463 20.48 4.389 32.183 1.463 5.851 4.389 10.24 10.24 13.166 76.069 35.109 119.954 46.811 136.046 46.811 2.926 0 4.389 0 5.851 0 2.926-5.851 10.24-35.109 4.389-86.309zM42.423 427.52c-1.463 2.926 1.463 8.777 4.389 11.703 4.389 4.389 7.314 5.851 10.24 5.851 0 0 1.463 0 1.463 0 7.314-1.463 16.091-8.777 21.943-21.943 1.463-2.926 2.926-8.777 2.926-14.629-20.48 5.851-36.571 11.703-40.96 19.017z" />
<glyph unicode="&#xe946;" horiz-adv-x="1044" d="M476.891 642.56c4.389 0 7.314 2.926 7.314 5.851v8.777c29.257 4.389 48.274 21.943 48.274 55.589 0 36.571-24.869 48.274-48.274 57.051v54.126c20.48-1.463 27.794-10.24 33.646-10.24 7.314 0 11.703 10.24 11.703 14.629 0 13.166-26.331 19.017-43.886 19.017v8.777c0 2.926-4.389 5.851-7.314 5.851-4.389 0-7.314-2.926-7.314-5.851v-7.314c-24.869-2.926-51.2-16.091-51.2-49.737s26.331-43.886 51.2-52.663v-62.903c-27.794 1.463-35.109 20.48-43.886 20.48-7.314 0-11.703-8.777-11.703-14.629 0-13.166 21.943-30.72 55.589-32.183v-8.777c-1.463-2.926 1.463-5.851 5.851-5.851zM484.206 740.571c13.166-5.851 23.406-13.166 23.406-30.72 0-14.629-8.777-23.406-23.406-26.331v57.051zM446.171 800.549c0 14.629 10.24 20.48 26.331 21.943v-48.274c-16.091 5.851-26.331 11.703-26.331 26.331z" />
<glyph unicode="&#xe947;" horiz-adv-x="1044" d="M294.034 98.377c5.851-2.926 10.24-8.777 11.703-16.091l21.943-111.177c0-2.926 2.926-5.851 7.314-5.851h71.68c2.926 0 5.851 2.926 7.314 5.851l11.703 61.44c2.926 11.703 14.629 20.48 26.331 19.017 21.943-2.926 45.349-4.389 70.217-4.389 32.183 0 64.366 2.926 95.086 7.314 13.166 1.463 24.869-5.851 27.794-19.017l11.703-64.366c0-2.926 2.926-5.851 7.314-5.851h71.68c2.926 0 5.851 2.926 7.314 5.851l21.943 117.029c1.463 7.314 5.851 13.166 13.166 16.091 57.051 29.257 99.474 68.754 127.269 115.566 4.389 7.314 8.777 11.703 16.091 16.091v0c-497.371-285.257-732.891 253.074-735.817 258.926-23.406-40.96-35.109-90.697-35.109-146.286-5.851-111.177 45.349-197.486 143.36-250.149z" />
<glyph unicode="&#xe948;" horiz-adv-x="1044" d="M857.234 576.731c-7.314-40.96-20.48-73.143-33.646-81.92-17.554-10.24-59.977-11.703-90.697 10.24-24.869 17.554-36.571 48.274-33.646 86.309 32.183-23.406 99.474-55.589 157.989-14.629z" />
<glyph unicode="&#xe949;" horiz-adv-x="1139" d="M808.96 60.16c5.12-11.52 0-24.32-10.24-29.44 0 0-1.28 0-1.28-1.28-2.56-1.28-6.4-2.56-8.96-2.56-8.96 0-16.64 5.12-20.48 12.8-5.12 11.52 0 24.32 11.52 29.44h1.28c10.24 7.68 23.040 2.56 28.16-8.96z" />
<glyph unicode="&#xe94a;" horiz-adv-x="1139" d="M910.080 345.6c8.96-8.96 8.96-23.040 0-32l-134.4-134.4c-3.84-3.84-10.24-6.4-15.36-6.4s-11.52 2.56-15.36 6.4l-79.36 78.080c-8.96 8.96-8.96 23.040 0 32s23.040 8.96 32 0l62.72-62.72 119.040 119.040c7.68 8.96 21.76 8.96 30.72 0z" />
<glyph unicode="&#xe94b;" horiz-adv-x="1139" d="M911.36 129.28c-7.68-11.52-16.64-23.040-26.88-33.28-6.4-7.68-15.36-15.36-25.6-24.32-3.84-3.84-8.96-5.12-14.080-5.12-6.4 0-12.8 2.56-16.64 7.68-7.68 8.96-6.4 23.040 2.56 32 8.96 7.68 16.64 14.080 21.76 20.48 8.96 8.96 16.64 17.92 23.040 28.16s20.48 12.8 30.72 5.12c10.24-6.4 12.8-20.48 5.12-30.72z" />
<glyph unicode="&#xe94c;" horiz-adv-x="1139" d="M911.36 129.28c-7.68-11.52-16.64-23.040-26.88-33.28-6.4-7.68-15.36-15.36-25.6-24.32-3.84-3.84-8.96-5.12-14.080-5.12-6.4 0-12.8 2.56-16.64 7.68-7.68 8.96-6.4 23.040 2.56 32 8.96 7.68 16.64 14.080 21.76 20.48 8.96 8.96 16.64 17.92 23.040 28.16s20.48 12.8 30.72 5.12c10.24-6.4 12.8-20.48 5.12-30.72z" />
<glyph unicode="&#xe94d;" horiz-adv-x="1139" d="M798.72 30.72c0 0-1.28 0-1.28-1.28-2.56-1.28-6.4-2.56-8.96-2.56-8.96 0-16.64 5.12-20.48 12.8-5.12 11.52 0 24.32 11.52 29.44h1.28c11.52 5.12 24.32 0 29.44-10.24 3.84-8.96-1.28-23.040-11.52-28.16z" />
<glyph unicode="&#xe94e;" horiz-adv-x="1139" d="M1072.64 960h-1006.080c-37.12 0-66.56-29.44-66.56-66.56v-623.36c0-37.12 29.44-66.56 66.56-66.56h468.48c20.48-84.48 65.28-143.36 103.68-181.76 57.6-55.040 122.88-85.76 148.48-85.76s90.88 29.44 148.48 85.76c39.68 38.4 84.48 97.28 103.68 181.76h33.28c37.12 0 66.56 29.44 66.56 66.56v623.36c0 37.12-29.44 66.56-66.56 66.56zM1006.080 294.4c0-117.76-53.76-194.56-99.84-239.36-53.76-52.48-108.8-72.96-119.040-74.24-10.24 1.28-65.28 20.48-119.040 74.24-44.8 44.8-99.84 122.88-99.84 239.36v110.080c76.8 21.76 148.48 52.48 218.88 92.16 69.12-38.4 143.36-70.4 218.88-92.16v-110.080zM1095.68 270.080c0-11.52-10.24-21.76-21.76-21.76h-25.6c1.28 15.36 2.56 30.72 2.56 46.080v126.72c0 10.24-6.4 19.2-16.64 21.76-80.64 21.76-162.56 56.32-235.52 98.56-6.4 3.84-15.36 3.84-23.040 0-75.52-43.52-152.32-76.8-235.52-98.56-10.24-2.56-16.64-11.52-16.64-21.76v-126.72c0-16.64 1.28-32 2.56-46.080h-460.8c-11.52 0-21.76 10.24-21.76 21.76v378.88h1050.88v-378.88zM1095.68 692.48h-1050.88v89.6h1050.88v-89.6zM1095.68 826.88h-1050.88v66.56c0 12.8 10.24 21.76 21.76 21.76h1007.36c12.8 0 21.76-10.24 21.76-21.76v-66.56z" />
<glyph unicode="&#xe94f;" horiz-adv-x="1139" d="M44.8 782.080h1050.88v-89.6h-1050.88v89.6z" />
<glyph unicode="&#xe950;" horiz-adv-x="1139" d="M787.2 496.64c-70.4-39.68-142.080-70.4-218.88-92.16v-110.080c0-117.76 53.76-195.84 99.84-239.36 53.76-52.48 108.8-72.96 119.040-74.24 10.24 0 65.28 21.76 119.040 74.24 46.080 44.8 99.84 122.88 99.84 239.36v110.080c-74.24 21.76-149.76 52.48-218.88 92.16zM798.72 30.72c0 0-1.28 0-1.28-1.28-2.56-1.28-6.4-2.56-8.96-2.56-8.96 0-16.64 5.12-20.48 12.8-5.12 11.52 0 24.32 11.52 29.44h1.28c11.52 5.12 24.32 0 29.44-10.24 3.84-8.96-1.28-23.040-11.52-28.16zM911.36 129.28c-7.68-11.52-16.64-23.040-26.88-33.28-6.4-7.68-15.36-15.36-25.6-24.32-3.84-3.84-8.96-5.12-14.080-5.12-6.4 0-12.8 2.56-16.64 7.68-7.68 8.96-6.4 23.040 2.56 30.72s16.64 14.080 21.76 20.48c8.96 8.96 16.64 17.92 23.040 28.16s20.48 12.8 30.72 5.12c10.24-5.12 12.8-19.2 5.12-29.44zM910.080 313.6l-134.4-134.4c-3.84-3.84-10.24-6.4-15.36-6.4s-11.52 2.56-15.36 6.4l-79.36 78.080c-8.96 8.96-8.96 23.040 0 32s23.040 8.96 32 0l62.72-62.72 119.040 119.040c8.96 8.96 23.040 8.96 32 0 7.68-8.96 7.68-23.040-1.28-32z" />
<glyph unicode="&#xe951;" horiz-adv-x="1139" d="M267.52 492.8c-12.8 0-26.88-2.56-38.4-7.68-11.52 5.12-25.6 7.68-38.4 7.68-56.32 0-101.12-44.8-101.12-99.84s44.8-99.84 99.84-99.84c14.080 0 26.88 2.56 38.4 7.68 12.8-5.12 25.6-7.68 38.4-7.68 55.040 0 99.84 44.8 99.84 99.84 1.28 55.040-43.52 99.84-98.56 99.84zM189.44 336.64c-30.72 0-55.040 25.6-55.040 56.32s24.32 55.040 55.040 55.040 56.32-25.6 56.32-55.040c-1.28-30.72-25.6-56.32-56.32-56.32zM272.64 336.64c10.24 16.64 16.64 34.56 16.64 55.040s-6.4 39.68-16.64 55.040c28.16-2.56 49.92-26.88 49.92-55.040s-21.76-52.48-49.92-55.040z" />
<glyph unicode="&#xe952;" horiz-adv-x="1139" d="M244.48 392.96c0-30.72-25.6-56.32-56.32-56.32s-55.040 25.6-55.040 56.32c0 30.72 24.32 55.040 55.040 55.040s56.32-25.6 56.32-55.040z" />
<glyph unicode="&#xe953;" horiz-adv-x="1139" d="M225.28 592.64h-113.92c-12.8 0-21.76-10.24-21.76-21.76 0-12.8 10.24-21.76 21.76-21.76h113.92c12.8 0 21.76 10.24 21.76 21.76 1.28 11.52-8.96 21.76-21.76 21.76z" />
<glyph unicode="&#xe954;" horiz-adv-x="1139" d="M291.84 592.64v0c-12.8 0-23.040-10.24-23.040-21.76 0-12.8 10.24-21.76 21.76-21.76h1.28c12.8 0 21.76 10.24 21.76 21.76s-10.24 21.76-21.76 21.76z" />
<glyph unicode="&#xe955;" horiz-adv-x="1139" d="M910.080 313.6l-134.4-134.4c-3.84-3.84-10.24-6.4-15.36-6.4s-11.52 2.56-15.36 6.4l-79.36 78.080c-8.96 8.96-8.96 23.040 0 32s23.040 8.96 32 0l62.72-62.72 119.040 119.040c8.96 8.96 23.040 8.96 32 0 7.68-8.96 7.68-23.040-1.28-32z" />
<glyph unicode="&#xe956;" d="M561.92 364.8h83.2v-33.28h-83.2v33.28z" />
<glyph unicode="&#xe957;" d="M858.88 364.8h33.28v-33.28h-33.28v33.28z" />
<glyph unicode="&#xe958;" d="M925.44 364.8h33.28v-33.28h-33.28v33.28z" />
<glyph unicode="&#xe959;" d="M528.64 34.56h198.4v-33.28h-198.4v33.28z" />
<glyph unicode="&#xe95a;" d="M396.8 663.040h33.28v-495.36h-33.28v495.36z" />
<glyph unicode="&#xe95b;" d="M990.72 629.76h-66.56v247.040c0 46.080-37.12 83.2-83.2 83.2h-427.52c-46.080 0-81.92-37.12-81.92-83.2v-83.2h-264.96v-181.76h-66.56v-495.36h330.24v-98.56c0-46.080 37.12-81.92 81.92-81.92h428.8c46.080 0 83.2 37.12 83.2 81.92v248.32h66.56c17.92 0 33.28 15.36 33.28 33.28v296.96c0 17.92-15.36 33.28-33.28 33.28zM330.24 378.88c-5.12 1.28-10.24 2.56-16.64 2.56h-33.28c-8.96 0-16.64 7.68-16.64 16.64s7.68 16.64 16.64 16.64h33.28c8.96 0 16.64-7.68 16.64-16.64v-19.2zM330.24 445.44c-5.12 1.28-10.24 2.56-16.64 2.56v33.28h-33.28v-33.28c-26.88 0-49.92-21.76-49.92-49.92 0-26.88 21.76-49.92 49.92-49.92h33.28c8.96 0 16.64-7.68 16.64-16.64s-7.68-16.64-16.64-16.64h-33.28c-8.96 0-16.64 7.68-16.64 16.64h-33.28c0-26.88 21.76-49.92 49.92-49.92v-33.28h33.28v33.28c5.12 0 11.52 1.28 16.64 2.56v-65.28c-11.52-2.56-21.76-3.84-33.28-3.84-81.92 0-148.48 66.56-148.48 148.48s66.56 148.48 148.48 148.48c11.52 0 21.76-1.28 33.28-3.84v-62.72zM330.24 544c-11.52 2.56-21.76 3.84-33.28 3.84-99.84-1.28-181.76-81.92-181.76-183.040 0-99.84 81.92-181.76 181.76-181.76 11.52 0 21.76 1.28 33.28 2.56v-35.84h-296.96v430.080h296.96v-35.84zM330.24 613.12h-230.4v148.48h231.68v-148.48zM363.52 876.8c0 26.88 21.76 49.92 49.92 49.92h428.8c26.88 0 49.92-21.76 49.92-49.92v-49.92h-528.64v49.92zM892.16 17.92c0-26.88-21.76-49.92-49.92-49.92h-428.8c-26.88 0-49.92 21.76-49.92 49.92v49.92h528.64v-49.92zM892.16 101.12h-528.64v693.76h528.64v-165.12h-363.52c-17.92 0-33.28-15.36-33.28-33.28v-296.96c0-17.92 15.36-33.28 33.28-33.28h363.52v-165.12zM990.72 299.52h-462.080v165.12h462.080v-165.12zM990.72 497.92h-462.080v33.28h462.080v-33.28zM990.72 563.2h-462.080v33.28h462.080v-33.28z" />
<glyph unicode="&#xe95c;" d="M99.84 613.12h231.68v148.48h-231.68v-148.48zM198.4 695.040h-33.28v-33.28h-33.28v66.56h66.56v-33.28z" />
<glyph unicode="&#xe95d;" d="M296.96 546.56c11.52 0 21.76-1.28 33.28-3.84v35.84h-296.96v-430.080h296.96v35.84c-10.24-2.56-21.76-2.56-33.28-2.56-99.84 1.28-181.76 83.2-181.76 183.040 0 101.12 81.92 181.76 181.76 181.76zM131.84 216.32v-33.28h-65.28v66.56h33.28v-33.28h32zM131.84 514.56h-33.28v-33.28h-32v66.56h66.56v-33.28z" />
<glyph unicode="&#xe95e;" d="M892.16 876.8v-49.92h-528.64v49.92c0 26.88 21.76 49.92 49.92 49.92h428.8c26.88 0 49.92-21.76 49.92-49.92z" />
<glyph unicode="&#xe95f;" d="M363.52 67.84v-49.92c0-26.88 21.76-49.92 49.92-49.92h428.8c26.88 0 49.92 21.76 49.92 49.92v49.92h-528.64zM727.040 2.56h-198.4v33.28h198.4v-33.28z" />
<glyph unicode="&#xe960;" d="M528.64 299.52h462.080v165.12h-462.080v-165.12zM643.84 332.8h-83.2v33.28h83.2v-33.28zM892.16 332.8h-33.28v33.28h33.28v-33.28zM957.44 332.8h-33.28v33.28h33.28v-33.28z" />
<glyph unicode="&#xe961;" d="M561.92 364.8h83.2v-33.28h-83.2v33.28z" />
<glyph unicode="&#xe962;" d="M131.84 546.56v-32h-33.28v-33.28h-32v65.28z" />
<glyph unicode="&#xe963;" d="M198.4 728.32v-33.28h-33.28v-32h-33.28v65.28z" />
<glyph unicode="&#xe964;" d="M131.84 216.32v-33.28h-65.28v66.56h32v-33.28z" />
<glyph unicode="&#xe965;" d="M925.44 364.8h33.28v-33.28h-33.28v33.28z" />
<glyph unicode="&#xe966;" d="M858.88 364.8h33.28v-33.28h-33.28v33.28z" />
<glyph unicode="&#xe967;" d="M396.8 728.32h33.28v-33.28h-33.28v33.28z" />
<glyph unicode="&#xe968;" horiz-adv-x="924" d="M396.387 815.166h398.928v-52.089h-398.928v52.089z" />
<glyph unicode="&#xe969;" horiz-adv-x="924" d="M726.71-48.754h-598.392c-54.63 16.516-82.581 64.794-97.826 125.777h622.531c-3.811-49.548 22.868-91.474 73.687-125.777z" />
<glyph unicode="&#xe96a;" horiz-adv-x="924" d="M476.427 597.916c0-30.491-25.409-55.901-55.901-55.901s-55.901 25.409-55.901 55.901c0 30.491 25.409 55.901 55.901 55.901s55.901-24.139 55.901-55.901z" />
<glyph unicode="&#xe96b;" horiz-adv-x="924" d="M476.427 436.566c0-30.491-25.409-55.901-55.901-55.901s-55.901 25.409-55.901 55.901 25.409 55.901 55.901 55.901c30.491 0 55.901-25.409 55.901-55.901z" />
<glyph unicode="&#xe96c;" horiz-adv-x="924" d="M476.427 275.216c0-30.491-25.409-55.901-55.901-55.901s-55.901 25.409-55.901 55.901c0 30.491 25.409 55.901 55.901 55.901s55.901-25.409 55.901-55.901z" />
<glyph unicode="&#xe96d;" horiz-adv-x="924" d="M909.658 679.226c-8.893 0-15.246-6.352-15.246-15.246v-114.342c0-8.893 6.352-15.246 15.246-15.246s15.246 6.352 15.246 15.246v114.342c-1.27 8.893-7.623 15.246-15.246 15.246z" />
<glyph unicode="&#xe96e;" horiz-adv-x="924" d="M889.33 960h-578.065c-19.057 0-35.573-15.246-35.573-35.573v-383.682l-182.948 203.275c-5.082 6.352-12.705 8.893-20.328 10.164-7.623 0-15.246-2.541-21.598-7.623l-40.655-36.844c-12.705-11.434-12.705-29.221-2.541-41.926l259.176-287.127c2.541-2.541 6.352-5.082 10.164-7.623v-231.226h-58.442c-8.893 0-15.246-6.352-15.246-15.246s6.352-15.246 15.246-15.246h414.174c2.541 0 5.082-2.541 5.082-5.082v-30.491c0-44.467 20.328-83.851 53.36-110.531h-532.328c-60.983 0-110.531 49.548-110.531 110.531v30.491c0 2.541 2.541 5.082 5.082 5.082h99.097c8.893 0 15.246 6.352 15.246 15.246s-6.352 15.246-15.246 15.246h-99.097c-19.057 0-35.573-15.246-35.573-35.573v-30.491c0-77.499 62.253-139.752 139.752-139.752h626.342c77.499 0 139.752 62.253 139.752 139.752v407.821c0 8.893-6.352 15.246-15.246 15.246s-15.246-6.352-15.246-15.246v-407.821c0-60.983-49.548-110.531-110.531-110.531h-7.623c-60.983 0-110.531 49.548-110.531 110.531v30.491c0 19.057-15.246 35.573-35.573 35.573h-322.7v219.792l43.196-21.598c3.811-1.27 7.623-2.541 10.164-2.541 6.352 0 11.434 2.541 16.516 6.352 7.623 6.352 10.164 16.516 6.352 25.409l-22.868 62.253c0 1.27 0 1.27 0 2.541 0 7.623-2.541 15.246-7.623 21.598l-45.737 50.819v417.985c0 2.541 2.541 5.082 5.082 5.082h578.065c2.541 0 5.082-2.541 5.082-5.082v-195.653c0-8.893 6.352-15.246 15.246-15.246s15.246 6.352 15.246 15.246v195.653c-1.27 20.328-16.516 35.573-35.573 35.573zM71.146 724.963l17.787-20.328-40.655-36.844-17.787 20.328 40.655 36.844zM67.335 646.194l8.893 8.893 219.792-245.201-7.623-8.893-221.062 245.201zM320.159 388.288l17.787 15.246 11.434-29.221-29.221 13.975zM320.159 428.943l-221.062 245.201 8.893 8.893 219.792-245.201-7.623-8.893z" />
<glyph unicode="&#xe96f;" horiz-adv-x="924" d="M426.878 658.898c-27.95 0-50.819-22.868-50.819-50.819s22.868-50.819 50.819-50.819c27.95 0 50.819 22.868 50.819 50.819s-21.598 50.819-50.819 50.819zM426.878 586.481c-11.434 0-21.598 10.164-21.598 21.598s10.164 21.598 21.598 21.598 21.598-10.164 21.598-21.598c0-12.705-8.893-21.598-21.598-21.598z" />
<glyph unicode="&#xe970;" horiz-adv-x="924" d="M523.434 589.022h73.687c8.893 0 15.246 6.352 15.246 15.246s-6.352 15.246-15.246 15.246h-73.687c-8.893 0-15.246-6.352-15.246-15.246s7.623-15.246 15.246-15.246z" />
<glyph unicode="&#xe971;" horiz-adv-x="924" d="M780.069 582.67h-256.635c-8.893 0-15.246-6.352-15.246-15.246s6.352-15.246 15.246-15.246h256.635c8.893 0 15.246 6.352 15.246 15.246s-6.352 15.246-15.246 15.246z" />
<glyph unicode="&#xe972;" horiz-adv-x="924" d="M523.434 630.948v0c8.893 0 15.246 6.352 15.246 15.246s-6.352 15.246-15.246 15.246v0 0c-8.893 0-15.246-6.352-15.246-15.246 1.27-7.623 7.623-15.246 15.246-15.246z" />
<glyph unicode="&#xe973;" horiz-adv-x="924" d="M426.878 500.089c-27.95 0-50.819-22.868-50.819-50.819s22.868-50.819 50.819-50.819c27.95 0 50.819 22.868 50.819 50.819s-21.598 50.819-50.819 50.819zM426.878 427.672c-11.434 0-21.598 10.164-21.598 21.598s10.164 21.598 21.598 21.598 21.598-10.164 21.598-21.598c0-12.705-8.893-21.598-21.598-21.598z" />
<glyph unicode="&#xe974;" horiz-adv-x="924" d="M523.434 430.213h73.687c8.893 0 15.246 6.352 15.246 15.246s-6.352 15.246-15.246 15.246h-73.687c-8.893 0-15.246-6.352-15.246-15.246s7.623-15.246 15.246-15.246z" />
<glyph unicode="&#xe975;" horiz-adv-x="924" d="M780.069 425.132h-256.635c-8.893 0-15.246-6.352-15.246-15.246s6.352-15.246 15.246-15.246h256.635c8.893 0 15.246 6.352 15.246 15.246 0 7.623-6.352 15.246-15.246 15.246z" />
<glyph unicode="&#xe976;" horiz-adv-x="924" d="M523.434 473.409v0c8.893 0 15.246 6.352 15.246 15.246s-6.352 15.246-15.246 15.246v0 0c-8.893 0-15.246-6.352-15.246-15.246 1.27-8.893 7.623-15.246 15.246-15.246z" />
<glyph unicode="&#xe977;" horiz-adv-x="924" d="M426.878 341.28c-27.95 0-50.819-22.868-50.819-50.819s22.868-50.819 50.819-50.819c27.95 0 50.819 22.868 50.819 50.819s-21.598 50.819-50.819 50.819zM426.878 268.864c-11.434 0-21.598 10.164-21.598 21.598s10.164 21.598 21.598 21.598 21.598-10.164 21.598-21.598c0-11.434-8.893-21.598-21.598-21.598z" />
<glyph unicode="&#xe978;" horiz-adv-x="924" d="M523.434 272.675h73.687c8.893 0 15.246 6.352 15.246 15.246s-6.352 15.246-15.246 15.246h-73.687c-8.893 0-15.246-6.352-15.246-15.246s7.623-15.246 15.246-15.246z" />
<glyph unicode="&#xe979;" horiz-adv-x="924" d="M523.434 235.831h256.635c8.893 0 15.246 6.352 15.246 15.246s-6.352 15.246-15.246 15.246h-256.635c-8.893 0-15.246-6.352-15.246-15.246 1.27-7.623 7.623-15.246 15.246-15.246z" />
<glyph unicode="&#xe97a;" horiz-adv-x="924" d="M523.434 314.6v0c8.893 0 15.246 6.352 15.246 15.246s-6.352 15.246-15.246 15.246v0 0c-8.893 0-15.246-6.352-15.246-15.246 1.27-8.893 7.623-15.246 15.246-15.246z" />
<glyph unicode="&#xe97b;" horiz-adv-x="924" d="M818.184 763.077v87.663c0 8.893-6.352 15.246-15.246 15.246h-405.28c-8.893 0-15.246-6.352-15.246-15.246v-86.392c0-8.893 6.352-15.246 15.246-15.246h405.28c7.623-1.27 15.246 6.352 15.246 13.975zM787.692 778.323h-374.789v57.171h374.789v-57.171z" />
<glyph unicode="&#xe97c;" d="M775.68 32c-5.12 8.96-17.92 12.8-26.88 7.68h-1.28c-8.96-5.12-12.8-17.92-7.68-26.88 3.84-6.4 10.24-10.24 17.92-10.24 3.84 0 6.4 1.28 10.24 2.56h1.28c8.96 5.12 11.52 17.92 6.4 26.88z" />
<glyph unicode="&#xe97d;" d="M954.88 704c-67.84 119.040-179.2 203.52-311.040 238.080-131.84 35.84-268.8 17.92-387.84-51.2-119.040-67.84-203.52-179.2-238.080-311.040-35.84-131.84-17.92-270.080 51.2-387.84 61.44-106.24 158.72-186.88 273.92-227.84 55.040-19.2 112.64-28.16 168.96-28.16 61.44 0 124.16 11.52 183.040 34.56 10.24 3.84 15.36 15.36 11.52 25.6s-15.36 15.36-25.6 11.52c-156.16-60.16-325.12-33.28-451.84 61.44l17.92 93.44 8.96 2.56c33.28 10.24 51.2 46.080 39.68 78.080l-6.4 19.2c-1.28 5.12-1.28 8.96 0 14.080 5.12 16.64 3.84 35.84-5.12 51.2s-24.32 26.88-42.24 29.44l-44.8 8.96-87.040 66.56c-5.12 3.84-11.52 5.12-17.92 2.56l-51.2-16.64c-1.28 17.92-1.28 37.12 0 55.040 2.56-2.56 3.84-2.56 3.84-3.84 1.28-1.28 2.56-3.84 3.84-3.84 3.84-3.84 7.68-5.12 15.36-5.12s17.92 1.28 35.84 3.84c16.64 2.56 33.28 5.12 33.28 5.12 6.4 1.28 12.8 5.12 15.36 11.52s2.56 14.080-1.28 19.2l-24.32 35.84 35.84 25.6c2.56 1.28 3.84 3.84 5.12 6.4l55.040 94.72 21.76 23.040c23.040 24.32 29.44 58.88 16.64 89.6-7.68 17.92-20.48 33.28-35.84 42.24 17.92 14.080 35.84 26.88 56.32 38.4 72.96 42.24 152.32 62.72 230.4 62.72l-35.84-44.8-131.84-46.080c-5.12-1.28-10.24-6.4-11.52-11.52l-37.12-89.6c-2.56-6.4-1.28-14.080 2.56-19.2l53.76-75.52c-7.68-7.68-15.36-17.92-24.32-30.72-3.84-5.12-7.68-10.24-10.24-14.080-2.56-2.56-5.12-5.12-6.4-7.68-11.52-12.8-23.040-26.88-32-44.8-19.2-39.68-15.36-85.76 10.24-120.32 24.32-33.28 64-49.92 106.24-46.080 6.4 1.28 12.8 2.56 19.2 3.84 16.64 3.84 23.040 5.12 28.16 0 2.56-2.56 2.56-2.56 2.56-11.52 0-5.12 0-12.8 1.28-19.2 2.56-12.8 10.24-20.48 16.64-28.16 2.56-3.84 6.4-6.4 7.68-8.96 6.4-15.36 3.84-23.040-2.56-40.96 0-1.28-1.28-3.84-1.28-5.12-8.96-28.16 3.84-56.32 15.36-80.64 3.84-7.68 6.4-15.36 8.96-21.76 17.92-53.76 32-65.28 42.24-70.4 5.12-2.56 11.52-3.84 17.92-3.84 29.44 0 58.88 26.88 72.96 43.52 8.96 10.24 10.24 21.76 12.8 29.44 1.28 3.84 1.28 6.4 2.56 8.96s3.84 5.12 6.4 8.96 11.52 14.080 16.64 26.88c3.84 10.24 5.12 12.8 14.080 21.76 1.28 1.28 2.56 2.56 3.84 5.12 26.88 29.44 19.2 51.2 12.8 74.24-6.4 19.2 5.12 32 30.72 56.32 11.52 10.24 23.040 21.76 32 34.56 3.84 5.12 15.36 23.040 8.96 39.68-7.68 16.64-25.6 19.2-40.96 21.76-6.4 1.28-15.36 2.56-17.92 3.84-12.8 7.68-20.48 24.32-26.88 40.96-1.28 3.84-2.56 6.4-3.84 10.24-2.56 5.12-5.12 12.8-7.68 19.2-7.68 19.2-15.36 39.68-29.44 55.040-12.8 14.080-35.84 20.48-57.6 25.6-6.4 1.28-14.080 3.84-17.92 5.12s-7.68 1.28-11.52 1.28c-10.24-2.56-16.64-5.12-21.76-8.96-1.28-1.28-5.12-3.84-7.68-10.24-7.68 3.84-17.92 10.24-23.040 14.080 0 0 0 0 0 0 2.56 7.68 0 15.36-1.28 19.2-11.52 23.040-48.64 21.76-55.040 20.48-3.84 0-8.96 0-15.36-1.28-8.96 0-17.92 0-28.16-1.28v1.28c7.68 20.48 26.88 33.28 48.64 33.28h11.52c11.52 0 20.48 8.96 20.48 20.48s-8.96 20.48-20.48 20.48h-11.52c-32 0-61.44-16.64-78.080-43.52l-29.44 42.24 29.44 71.68 129.28 44.8c3.84 1.28 6.4 3.84 8.96 6.4l57.6 71.68c147.2-14.080 285.44-96 364.8-234.24 21.76-37.12 37.12-75.52 47.36-113.92l-14.080-5.12c-11.52-10.24-17.92-24.32-17.92-38.4 0 0 0 0 0 0l-14.080 38.4c-2.56 5.12-5.12 11.52-8.96 15.36l-24.32 29.44c-10.24 11.52-23.040 17.92-38.4 17.92h-30.72c-10.24 0-20.48-6.4-25.6-15.36s-5.12-20.48 1.28-29.44l2.56-5.12c-19.2-16.64-42.24-30.72-66.56-39.68l-40.96 79.36v17.92c0 5.12-2.56 10.24-6.4 14.080l-37.12 35.84c-2.56 2.56-5.12 3.84-7.68 3.84l-33.28 11.52c-10.24 3.84-21.76-1.28-25.6-11.52s1.28-21.76 12.8-25.6l29.44-10.24 28.16-26.88v-14.080c0-3.84 1.28-6.4 2.56-8.96l51.2-98.56c5.12-8.96 15.36-12.8 24.32-8.96l15.36 5.12c34.56 12.8 67.84 33.28 93.44 60.16 6.4 6.4 7.68 17.92 2.56 25.6l-1.28 1.28h10.24c2.56 0 5.12-1.28 7.68-3.84l24.32-29.44c1.28-1.28 1.28-2.56 1.28-3.84l26.88-74.24c2.56-6.4 7.68-11.52 14.080-12.8 1.28 0 2.56 0 3.84 0 5.12 0 10.24 2.56 14.080 6.4l12.8 12.8c7.68 7.68 14.080 19.2 16.64 29.44 20.48-160-42.24-326.4-175.36-430.080-8.96-6.4-10.24-19.2-3.84-28.16s19.2-10.24 28.16-3.84c96 75.52 162.56 183.040 185.6 303.36 26.88 120.32 6.4 245.76-56.32 353.28zM94.72 394.24l81.92-62.72c2.56-2.56 5.12-3.84 7.68-3.84l49.92-10.24c6.4-1.28 11.52-5.12 15.36-10.24s3.84-11.52 1.28-17.92c-3.84-12.8-3.84-25.6 0-38.4l6.4-19.2c3.84-11.52-2.56-24.32-14.080-28.16l-19.2-6.4c-6.4-2.56-11.52-7.68-14.080-15.36l-15.36-83.2c-35.84 32-66.56 70.4-90.88 113.92-30.72 52.48-49.92 108.8-57.6 166.4l48.64 15.36zM211.2 712.96l-23.040-25.6c-1.28-1.28-2.56-2.56-2.56-3.84l-53.76-93.44-47.36-34.56c-8.96-6.4-11.52-17.92-5.12-28.16l17.92-25.6c-10.24-1.28-19.2-2.56-25.6-3.84-1.28 1.28-2.56 2.56-3.84 3.84-5.12 3.84-11.52 10.24-20.48 19.2 16.64 99.84 65.28 195.84 140.8 267.52 14.080-5.12 26.88-15.36 32-29.44 6.4-14.080 2.56-33.28-8.96-46.080zM373.76 604.16c8.96 5.12 29.44 6.4 44.8 6.4 6.4 0 11.52 0 16.64 1.28 2.56 0 5.12 0 8.96 0-1.28-3.84-1.28-6.4-1.28-10.24 1.28-6.4 5.12-11.52 10.24-14.080 3.84-2.56 8.96-5.12 14.080-8.96 15.36-10.24 33.28-21.76 49.92-23.040 15.36-1.28 23.040 7.68 26.88 11.52 0 0 0 0 1.28 1.28 2.56 1.28 3.84 3.84 5.12 6.4 3.84-1.28 6.4-1.28 10.24-2.56 11.52-3.84 34.56-8.96 38.4-14.080 8.96-8.96 15.36-26.88 21.76-42.24 2.56-7.68 6.4-15.36 8.96-21.76 1.28-2.56 2.56-6.4 3.84-8.96 8.96-20.48 19.2-43.52 42.24-58.88 10.24-6.4 23.040-8.96 33.28-10.24 1.28 0 2.56 0 3.84-1.28-6.4-8.96-15.36-17.92-25.6-26.88-24.32-23.040-55.040-51.2-40.96-97.28 6.4-21.76 6.4-24.32-3.84-35.84-1.28-1.28-2.56-2.56-3.84-3.84-8.96-10.24-16.64-17.92-23.040-37.12-1.28-5.12-3.84-7.68-7.68-12.8-3.84-3.84-7.68-7.68-11.52-15.36s-6.4-15.36-7.68-21.76c-1.28-6.4-1.28-8.96-3.84-11.52-5.12-6.4-15.36-15.36-25.6-21.76-8.96-6.4-15.36-6.4-16.64-6.4-2.56 2.56-10.24 12.8-21.76 47.36-2.56 8.96-6.4 17.92-10.24 25.6-8.96 19.2-17.92 38.4-12.8 51.2 0 1.28 1.28 2.56 1.28 5.12 6.4 20.48 12.8 40.96 1.28 69.12-3.84 8.96-8.96 15.36-14.080 20.48-3.84 3.84-6.4 7.68-7.68 10.24 0 2.56 0 6.4 0 10.24 0 10.24 0 26.88-15.36 40.96-21.76 20.48-48.64 14.080-65.28 10.24-5.12-1.28-10.24-2.56-14.080-2.56-28.16-3.84-53.76 7.68-69.12 29.44-16.64 23.040-19.2 53.76-6.4 80.64 6.4 12.8 15.36 23.040 25.6 34.56 2.56 2.56 5.12 5.12 7.68 7.68 3.84 5.12 7.68 10.24 12.8 16.64s15.36 20.48 19.2 23.040z" />
<glyph unicode="&#xe97e;" d="M211.2 712.96l-23.040-25.6c-1.28-1.28-2.56-2.56-2.56-3.84l-53.76-93.44-47.36-33.28c-8.96-6.4-11.52-19.2-5.12-28.16l17.92-25.6c-10.24-1.28-19.2-2.56-25.6-3.84-1.28 1.28-2.56 2.56-3.84 3.84-5.12 3.84-11.52 10.24-20.48 19.2 16.64 101.12 65.28 195.84 140.8 267.52 14.080-5.12 26.88-15.36 32-29.44 6.4-15.36 2.56-34.56-8.96-47.36z" />
<glyph unicode="&#xe97f;" d="M243.2 203.52l-19.2-6.4c-6.4-2.56-11.52-7.68-14.080-15.36l-16.64-83.2c-35.84 32-66.56 70.4-90.88 113.92-30.72 52.48-49.92 110.080-57.6 166.4l49.92 16.64 81.92-62.72c2.56-2.56 5.12-3.84 7.68-3.84l49.92-10.24c6.4-1.28 11.52-5.12 15.36-10.24s3.84-11.52 1.28-17.92c-3.84-12.8-3.84-25.6 0-38.4l6.4-19.2c5.12-12.8-1.28-25.6-14.080-29.44z" />
<glyph unicode="&#xe980;" d="M714.24 413.44c-6.4-8.96-15.36-17.92-25.6-26.88-24.32-23.040-55.040-51.2-40.96-97.28 6.4-21.76 6.4-24.32-3.84-35.84-1.28-1.28-2.56-2.56-3.84-3.84-8.96-10.24-16.64-17.92-23.040-37.12-1.28-5.12-3.84-7.68-7.68-12.8-3.84-3.84-7.68-7.68-11.52-15.36s-6.4-15.36-7.68-21.76c-1.28-6.4-2.56-8.96-3.84-11.52-5.12-6.4-15.36-15.36-25.6-21.76-8.96-6.4-15.36-6.4-16.64-6.4-2.56 2.56-10.24 12.8-21.76 47.36-2.56 8.96-6.4 17.92-10.24 25.6-8.96 19.2-16.64 38.4-12.8 51.2 0 1.28 1.28 2.56 1.28 5.12 6.4 20.48 12.8 40.96 1.28 69.12-3.84 8.96-8.96 15.36-14.080 20.48-3.84 3.84-7.68 7.68-7.68 10.24-1.28 2.56-1.28 6.4-1.28 10.24 0 10.24 0 26.88-15.36 40.96-21.76 20.48-48.64 14.080-65.28 10.24-5.12-1.28-10.24-2.56-14.080-2.56-28.16-3.84-53.76 7.68-69.12 29.44-16.64 23.040-19.2 53.76-6.4 80.64 6.4 12.8 15.36 23.040 25.6 34.56 2.56 2.56 5.12 5.12 6.4 7.68 3.84 5.12 7.68 10.24 12.8 16.64 5.12 7.68 15.36 21.76 20.48 24.32 8.96 5.12 29.44 6.4 44.8 6.4 6.4 0 11.52 0 16.64 1.28 2.56 0 5.12 0 8.96 0-1.28-3.84-1.28-6.4-1.28-10.24 1.28-6.4 5.12-11.52 10.24-14.080 3.84-2.56 8.96-5.12 14.080-8.96 15.36-10.24 33.28-21.76 49.92-23.040 15.36-1.28 23.040 7.68 26.88 11.52 0 0 0 0 1.28 1.28 2.56 1.28 3.84 3.84 5.12 6.4 3.84-1.28 6.4-1.28 10.24-2.56 11.52-3.84 34.56-8.96 38.4-14.080 8.96-8.96 15.36-26.88 21.76-42.24 2.56-7.68 6.4-15.36 8.96-21.76 1.28-2.56 2.56-6.4 3.84-8.96 8.96-20.48 19.2-43.52 42.24-58.88 10.24-6.4 23.040-8.96 33.28-10.24 2.56-2.56 3.84-2.56 5.12-2.56z" />
<glyph unicode="&#xe981;" d="M820.48 271.36l-10.24 35.84c-2.56 7.68-8.96 14.080-16.64 15.36s-16.64-2.56-20.48-10.24c-2.56-3.84-3.84-7.68-6.4-12.8-3.84-6.4-6.4-14.080-10.24-17.92-2.56-2.56-6.4-5.12-11.52-6.4-11.52-5.12-26.88-12.8-33.28-32-3.84-11.52-2.56-21.76-1.28-28.16s1.28-7.68 0-11.52v0c-6.4-15.36-17.92-42.24-1.28-66.56 11.52-16.64 24.32-21.76 34.56-21.76 1.28 0 3.84 0 5.12 0 20.48 3.84 35.84 24.32 48.64 66.56l23.040 79.36c0 2.56 0 6.4 0 10.24zM757.76 193.28c-6.4-21.76-11.52-32-15.36-35.84 0 0-1.28 1.28-1.28 1.28-3.84 5.12 1.28 19.2 5.12 28.16v0c6.4 14.080 3.84 25.6 3.84 33.28-1.28 5.12-1.28 7.68 0 10.24s5.12 5.12 12.8 7.68c2.56 1.28 6.4 2.56 10.24 5.12l-15.36-49.92z" />
<glyph unicode="&#xe982;" d="M540.16 721.92h-1.28c-10.24 3.84-21.76-1.28-25.6-12.8-3.84-10.24 1.28-21.76 12.8-25.6h1.28c2.56-1.28 3.84-1.28 6.4-1.28 7.68 0 15.36 5.12 19.2 12.8 2.56 12.8-2.56 23.040-12.8 26.88z" />
<glyph unicode="&#xe983;" horiz-adv-x="731" d="M231.68 706.56c5.12-5.12 6.4-12.8 3.84-19.2s-8.96-10.24-15.36-10.24c-5.12 0-8.96 2.56-12.8 5.12-70.4 75.52-74.24 190.72-8.96 270.080 3.84 5.12 10.24 7.68 16.64 6.4s11.52-5.12 12.8-11.52c2.56-6.4 1.28-12.8-3.84-16.64-55.040-65.28-52.48-161.28 7.68-224z" />
<glyph unicode="&#xe984;" horiz-adv-x="731" d="M486.4 931.84c-3.84 5.12-5.12 11.52-2.56 16.64 2.56 6.4 7.68 10.24 12.8 11.52 6.4 1.28 12.8-1.28 16.64-6.4 51.2-62.72 61.44-151.040 24.32-224-2.56-3.84-5.12-7.68-10.24-8.96-3.84-1.28-8.96-1.28-12.8 1.28-8.96 3.84-11.52 14.080-7.68 23.040 30.72 61.44 23.040 134.4-20.48 186.88z" />
<glyph unicode="&#xe985;" horiz-adv-x="731" d="M666.88 550.4c-14.080 1.28-26.88-2.56-39.68-8.96v26.88c0 24.32-12.8 47.36-34.56 58.88-21.76 12.8-47.36 11.52-69.12-1.28-2.56 23.040-16.64 43.52-37.12 53.76s-44.8 10.24-65.28-2.56v28.16c42.24 24.32 67.84 69.12 67.84 117.76 2.56 75.52-58.88 136.96-134.4 136.96s-135.68-61.44-135.68-136.96c0-48.64 25.6-93.44 67.84-117.76v-217.6c20.48-3.84 34.56-6.4 34.56-6.4s-1.28-11.52 0-30.72c2.56-52.48 23.040-162.56 125.44-249.6 140.8-119.040 181.76-145.92 181.76-179.2 0-11.52 14.080-23.040 34.56-32v51.2c0 3.84 1.28 8.96 5.12 11.52 62.72 57.6 64 153.6 64 157.44v268.8c-1.28 37.12-28.16 67.84-65.28 71.68zM286.72 823.040v-76.8c-21.76 19.2-34.56 47.36-34.56 76.8 0 56.32 46.080 102.4 102.4 102.4s102.4-46.080 102.4-102.4c0-29.44-12.8-56.32-34.56-76.8v76.8c0 37.12-30.72 67.84-67.84 67.84s-67.84-29.44-67.84-67.84z" />
<glyph unicode="&#xe986;" horiz-adv-x="731" d="M234.24 687.36c-2.56-6.4-8.96-10.24-15.36-10.24-5.12 0-8.96 2.56-12.8 5.12-70.4 75.52-74.24 190.72-8.96 270.080 3.84 5.12 10.24 7.68 16.64 6.4s11.52-5.12 12.8-11.52c2.56-6.4 1.28-12.8-3.84-16.64-55.040-66.56-51.2-162.56 7.68-225.28 5.12-3.84 6.4-11.52 3.84-17.92z" />
<glyph unicode="&#xe987;" horiz-adv-x="731" d="M537.6 729.6c-2.56-3.84-5.12-7.68-10.24-8.96-3.84-1.28-8.96-1.28-12.8 1.28-8.96 3.84-11.52 14.080-7.68 23.040 30.72 61.44 23.040 134.4-20.48 186.88-3.84 5.12-5.12 11.52-2.56 16.64 2.56 6.4 7.68 10.24 12.8 11.52 6.4 1.28 12.8-1.28 16.64-6.4 51.2-62.72 61.44-151.040 24.32-224z" />
<glyph unicode="&#xe988;" horiz-adv-x="731" d="M405.76 21.76c0-8.96-7.68-16.64-16.64-16.64h-16.64c-8.96 0-16.64 7.68-16.64 16.64s7.68 16.64 16.64 16.64h16.64c8.96 0 16.64-7.68 16.64-16.64z" />
<glyph unicode="&#xe989;" horiz-adv-x="731" d="M593.92 21.76c0-8.96-7.68-16.64-16.64-16.64h-119.040c-8.96 0-16.64 7.68-16.64 16.64s7.68 16.64 16.64 16.64h119.040c8.96 0 16.64-7.68 16.64-16.64z" />
<glyph unicode="&#xe98a;" horiz-adv-x="731" d="M661.76 175.36c-1.28-17.92-8.96-34.56-21.76-46.080-3.84-3.84-7.68-5.12-11.52-5.12-6.4 0-12.8 3.84-15.36 10.24s-1.28 14.080 3.84 19.2c6.4 6.4 10.24 14.080 11.52 23.040 0 8.96 7.68 16.64 17.92 16.64 8.96-1.28 15.36-8.96 15.36-17.92z" />
<glyph unicode="&#xe98b;" horiz-adv-x="731" d="M661.76 345.6v-102.4c0-8.96-7.68-16.64-16.64-16.64s-16.64 7.68-16.64 16.64v102.4c0 8.96 7.68 16.64 16.64 16.64s16.64-7.68 16.64-16.64z" />
<glyph unicode="&#xe98c;" horiz-adv-x="731" d="M666.88 550.4c-14.080 1.28-26.88-2.56-39.68-8.96v26.88c0 24.32-12.8 47.36-34.56 58.88s-47.36 11.52-69.12-1.28c-2.56 23.040-16.64 43.52-37.12 53.76s-44.8 10.24-65.28-2.56v28.16c42.24 24.32 67.84 69.12 67.84 117.76 2.56 75.52-58.88 136.96-134.4 136.96s-135.68-61.44-135.68-136.96c0-48.64 25.6-93.44 67.84-117.76v-275.2c0-20.48-2.56-39.68-7.68-58.88-1.28-6.4-6.4-10.24-12.8-11.52-5.12-1.28-11.52 0-15.36 3.84-12.8 12.8-25.6 26.88-35.84 42.24-29.44 44.8-103.68 126.72-151.040 126.72-25.6 0-49.92-14.080-61.44-38.4-7.68-20.48-1.28-44.8 15.36-58.88 33.28-32 101.12-149.76 133.12-232.96 23.040-56.32 72.96-112.64 110.080-148.48 16.64-16.64 25.6-38.4 25.6-60.16v-6.4c0-28.16 23.040-51.2 51.2-51.2h272.64c28.16 0 51.2 23.040 51.2 51.2v52.48c0 3.84 1.28 8.96 5.12 11.52 62.72 57.6 64 153.6 64 157.44v270.080c0 37.12-26.88 67.84-64 71.68zM252.16 823.040c0 56.32 46.080 102.4 102.4 102.4s102.4-46.080 102.4-102.4c0-29.44-12.8-57.6-34.56-76.8v76.8c0 38.4-30.72 67.84-67.84 67.84-38.4 0-67.84-30.72-67.84-67.84v-76.8c-21.76 20.48-34.56 47.36-34.56 76.8zM696.32 208.64c0-1.28-1.28-85.76-52.48-133.12-10.24-10.24-15.36-23.040-15.36-37.12v-51.2c0-8.96-7.68-16.64-16.64-16.64h-273.92c-8.96 0-16.64 7.68-16.64 16.64v6.4c0 32-12.8 62.72-35.84 84.48-29.44 28.16-80.64 83.2-102.4 136.96-34.56 88.32-104.96 208.64-140.8 244.48-7.68 7.68-10.24 15.36-7.68 21.76 6.4 11.52 17.92 17.92 30.72 17.92 23.040 0 85.76-57.6 121.6-111.36 11.52-17.92 25.6-33.28 40.96-48.64 12.8-11.52 30.72-16.64 47.36-12.8s30.72 16.64 35.84 33.28c7.68 23.040 10.24 46.080 10.24 70.4v392.96c0 19.2 15.36 34.56 34.56 34.56s34.56-15.36 34.56-34.56v-358.4c0-8.96 7.68-16.64 16.64-16.64s16.64 7.68 16.64 16.64v153.6c0 19.2 15.36 34.56 34.56 34.56s34.56-15.36 34.56-34.56v-153.6c0-8.96 7.68-16.64 16.64-16.64s16.64 7.68 16.64 16.64v102.4c0 19.2 15.36 34.56 34.56 34.56s34.56-15.36 34.56-34.56v-119.040c0-8.96 7.68-16.64 16.64-16.64s16.64 7.68 16.64 16.64v34.56c0 8.96 3.84 17.92 10.24 24.32s16.64 10.24 26.88 10.24c17.92-2.56 32-17.92 32-37.12v-271.36z" />
<glyph unicode="&#xe98d;" horiz-adv-x="731" d="M666.88 550.4c-14.080 1.28-26.88-2.56-39.68-8.96v26.88c0 24.32-12.8 47.36-34.56 58.88s-47.36 11.52-69.12-1.28c-2.56 23.040-16.64 43.52-37.12 53.76s-44.8 10.24-65.28-2.56v28.16c42.24 24.32 67.84 69.12 67.84 117.76 2.56 75.52-58.88 136.96-134.4 136.96s-135.68-61.44-135.68-136.96c0-48.64 25.6-93.44 67.84-117.76v-275.2c0-20.48-2.56-39.68-7.68-58.88-1.28-6.4-6.4-10.24-12.8-11.52-5.12-1.28-11.52 0-15.36 3.84-12.8 12.8-25.6 26.88-35.84 42.24-29.44 44.8-103.68 126.72-151.040 126.72-25.6 0-49.92-14.080-61.44-38.4-7.68-20.48-1.28-44.8 15.36-58.88 33.28-32 101.12-149.76 133.12-232.96 23.040-56.32 72.96-112.64 110.080-148.48 16.64-16.64 25.6-38.4 25.6-60.16v-6.4c0-28.16 23.040-51.2 51.2-51.2h272.64c28.16 0 51.2 23.040 51.2 51.2v52.48c0 3.84 1.28 8.96 5.12 11.52 62.72 57.6 64 153.6 64 157.44v270.080c0 37.12-26.88 67.84-64 71.68zM252.16 823.040c0 56.32 46.080 102.4 102.4 102.4s102.4-46.080 102.4-102.4c0-29.44-12.8-57.6-34.56-76.8v76.8c0 38.4-30.72 67.84-67.84 67.84-38.4 0-67.84-30.72-67.84-67.84v-76.8c-21.76 20.48-34.56 47.36-34.56 76.8zM696.32 208.64c0-1.28-1.28-85.76-52.48-133.12-10.24-10.24-15.36-23.040-15.36-37.12v-51.2c0-8.96-7.68-16.64-16.64-16.64h-273.92c-8.96 0-16.64 7.68-16.64 16.64v6.4c0 32-12.8 62.72-35.84 84.48-29.44 28.16-80.64 83.2-102.4 136.96-34.56 88.32-104.96 208.64-140.8 244.48-7.68 7.68-10.24 15.36-7.68 21.76 6.4 11.52 17.92 17.92 30.72 17.92 23.040 0 85.76-57.6 121.6-111.36 11.52-17.92 25.6-33.28 40.96-48.64 12.8-11.52 30.72-16.64 47.36-12.8s30.72 16.64 35.84 33.28c7.68 23.040 10.24 46.080 10.24 70.4v392.96c0 19.2 15.36 34.56 34.56 34.56s34.56-15.36 34.56-34.56v-358.4c0-8.96 7.68-16.64 16.64-16.64s16.64 7.68 16.64 16.64v153.6c0 19.2 15.36 34.56 34.56 34.56s34.56-15.36 34.56-34.56v-153.6c0-8.96 7.68-16.64 16.64-16.64s16.64 7.68 16.64 16.64v102.4c0 19.2 15.36 34.56 34.56 34.56s34.56-15.36 34.56-34.56v-119.040c0-8.96 7.68-16.64 16.64-16.64s16.64 7.68 16.64 16.64v34.56c0 8.96 3.84 17.92 10.24 24.32s16.64 10.24 26.88 10.24c17.92-2.56 32-17.92 32-37.12v-271.36z" />
<glyph unicode="&#xe98e;" horiz-adv-x="731" d="M661.76 345.6v-102.4c0-8.96-7.68-16.64-16.64-16.64s-16.64 7.68-16.64 16.64v102.4c0 8.96 7.68 16.64 16.64 16.64s16.64-7.68 16.64-16.64z" />
<glyph unicode="&#xe98f;" horiz-adv-x="731" d="M661.76 175.36c-1.28-17.92-8.96-34.56-21.76-46.080-3.84-3.84-7.68-5.12-11.52-5.12-6.4 0-12.8 3.84-15.36 10.24s-1.28 14.080 3.84 19.2c6.4 6.4 10.24 14.080 11.52 23.040 0 8.96 7.68 16.64 17.92 16.64 8.96-1.28 15.36-8.96 15.36-17.92z" />
<glyph unicode="&#xe990;" horiz-adv-x="731" d="M405.76 21.76c0-8.96-7.68-16.64-16.64-16.64h-16.64c-8.96 0-16.64 7.68-16.64 16.64s7.68 16.64 16.64 16.64h16.64c8.96 0 16.64-7.68 16.64-16.64z" />
<glyph unicode="&#xe991;" horiz-adv-x="731" d="M593.92 21.76c0-8.96-7.68-16.64-16.64-16.64h-119.040c-8.96 0-16.64 7.68-16.64 16.64s7.68 16.64 16.64 16.64h119.040c8.96 0 16.64-7.68 16.64-16.64z" />
<glyph unicode="&#xe992;" horiz-adv-x="731" d="M234.24 687.36c-2.56-6.4-8.96-10.24-15.36-10.24-5.12 0-8.96 2.56-12.8 5.12-70.4 75.52-74.24 190.72-8.96 270.080 3.84 5.12 10.24 7.68 16.64 6.4s11.52-5.12 12.8-11.52c2.56-6.4 1.28-12.8-3.84-16.64-55.040-66.56-51.2-162.56 7.68-225.28 5.12-3.84 6.4-11.52 3.84-17.92z" />
<glyph unicode="&#xe993;" horiz-adv-x="731" d="M537.6 729.6c-2.56-3.84-5.12-7.68-10.24-8.96-3.84-1.28-8.96-1.28-12.8 1.28-8.96 3.84-11.52 14.080-7.68 23.040 30.72 61.44 23.040 134.4-20.48 186.88-3.84 5.12-5.12 11.52-2.56 16.64 2.56 6.4 7.68 10.24 12.8 11.52 6.4 1.28 12.8-1.28 16.64-6.4 51.2-62.72 61.44-151.040 24.32-224z" />
<glyph unicode="&#xe994;" d="M988.471 347.123c2.538-60.907-21.571-120.545-65.983-163.688-13.958 3.807-27.916 2.538-40.605-2.538l-114.201-48.218c0 2.538 0 3.807 1.269 6.344 0 34.26-27.916 62.176-62.176 62.176h-138.31c-13.958 0-27.916 3.807-39.336 8.882-38.067 19.033-79.941 31.722-121.814 38.067-12.689 31.722-20.302 64.714-19.033 97.705 0 12.689 0 26.647 1.269 40.605 45.68-15.227 87.554-25.378 126.89-29.185 31.722-62.176 97.705-104.050 171.301-104.050 107.856 0 194.141 86.285 194.141 194.141 0 10.151-1.269 19.033-2.538 29.185 30.454 30.454 50.756 59.638 60.907 76.134 34.26-64.714 48.218-140.848 48.218-205.561z" />
<glyph unicode="&#xe995;" d="M965.631 178.359c39.336 46.949 60.907 106.587 58.369 168.763 0 71.058-15.227 153.537-52.025 225.864-34.26 64.714-85.016 121.814-159.881 150.999v68.52l45.68 36.798c3.807 3.807 6.344 8.882 6.344 13.958v98.974c0 10.151-7.613 17.765-17.765 17.765h-53.294c-5.076 0-8.882-2.538-12.689-5.076l-22.84-22.84-21.571 22.84c-3.807 2.538-7.613 5.076-12.689 5.076h-71.058c-5.076 0-8.882-2.538-12.689-5.076l-22.84-22.84-22.84 22.84c-3.807 3.807-7.613 5.076-12.689 5.076h-53.294c-10.151 0-17.765-7.613-17.765-17.765v-98.974c0-5.076 2.538-10.151 6.344-13.958l46.949-36.798v-68.52c-156.074-63.445-211.906-241.090-211.906-376.862 0-31.722 5.076-63.445 15.227-93.898-7.613 0-15.227 1.269-22.84 1.269h-44.411c0 10.151-7.613 17.765-17.765 17.765h-140.848c-10.151 0-17.765-7.613-17.765-17.765h-123.083v-35.529h123.083v-176.377h-123.083v-35.529h123.083c0-10.151 7.613-17.765 17.765-17.765h140.848c10.151 0 17.765 7.613 17.765 17.765v6.344l131.965-54.563c72.327-29.185 152.268-30.454 224.595-2.538l272.813 104.050c16.496 6.344 29.185 19.033 35.529 34.26 1.269 1.269 1.269 3.807 2.538 5.076 7.613 22.84 2.538 46.949-13.958 64.714 5.076 5.076 8.882 10.151 12.689 13.958zM265.2 24.823h-105.318v211.906h105.318v-211.906zM546.895 852.144v72.327h27.916l30.454-30.454c6.344-6.344 17.765-6.344 25.378 0l29.185 30.454h55.831l30.454-30.454c6.344-6.344 17.765-6.344 25.378 0l30.454 30.454h27.916v-72.327l-41.874-32.991h-199.217l-41.874 32.991zM776.565 730.33h-176.377v53.294h176.377v-53.294zM586.23 694.8h204.292c71.058-26.647 119.276-79.941 150.999-142.116 32.991-65.983 46.949-140.848 46.949-206.83 2.538-60.907-21.571-120.545-65.983-163.688-13.958 3.807-27.916 2.538-40.605-2.538l-114.201-48.218c0 2.538 0 3.807 1.269 6.344 0 34.26-27.916 62.176-62.176 62.176h-138.31c-13.958 0-27.916 3.807-39.336 8.882-38.067 19.033-79.941 31.722-121.814 38.067-12.689 31.722-20.302 64.714-19.033 97.705 0 12.689 0 26.647 1.269 40.605 10.151 123.083 65.983 261.393 196.679 309.611zM932.639 108.57c-2.538-7.613-8.882-12.689-16.496-15.227l-272.813-104.050c-63.445-24.109-134.503-24.109-197.948 2.538l-144.654 60.907v166.226h44.411c58.369 0 116.739-13.958 168.763-39.336 17.765-8.882 36.798-12.689 55.831-12.689h137.041c15.227 0 26.647-12.689 26.647-26.647 0-12.689-8.882-22.84-20.302-25.378-2.538 0-5.076 0-6.344 0h-213.175v-35.529h211.906c0 0 1.269 0 1.269 0 13.958 0 27.916 3.807 40.605 8.882l147.192 62.176c7.613 2.538 15.227 2.538 21.571 0 7.613-2.538 12.689-8.882 16.496-16.496 3.807-8.882 3.807-17.765 0-25.378z" />
<glyph unicode="&#xe996;" d="M194.141 95.881h35.529v-35.529h-35.529v35.529z" />
<glyph unicode="&#xe997;" d="M932.639 108.57c-2.538-7.613-8.882-12.689-16.496-15.227l-272.813-104.050c-63.445-24.109-134.503-24.109-197.948 2.538l-144.654 60.907v163.688h3.807c0 0 73.596-131.965 190.335-131.965v-6.344h211.906c0 0 1.269 0 1.269 0 13.958 0 27.916 3.807 40.605 8.882l147.192 62.176c7.613 2.538 15.227 2.538 21.571 0 7.613-2.538 12.689-8.882 16.496-16.496 2.538-7.613 2.538-16.496-1.269-24.109z" />
<glyph unicode="&#xe998;" d="M516.441 358.543c15.227-2.538 29.185-3.807 43.143-3.807 35.529-1.269 67.252 1.269 97.705 6.344 35.529 6.344 68.52 16.496 97.705 29.185 35.529 16.496 65.983 35.529 91.361 57.1 12.689 10.151 22.84 20.302 32.991 30.454 1.269-8.882 2.538-19.033 2.538-29.185 0-107.856-87.554-194.141-194.141-194.141-74.865 0-139.579 41.874-171.301 104.050z" />
<glyph unicode="&#xe999;" d="M880.615 477.819c-13.958 93.898-95.167 164.957-191.603 164.957-106.587 0-194.141-86.285-194.141-194.141 0-32.991 7.613-63.445 21.571-90.092 31.722-62.176 97.705-104.050 171.301-104.050 107.856 0 194.141 86.285 194.141 194.141 0 8.882 0 19.033-1.269 29.185zM687.742 290.022c-53.294 0-100.243 25.378-128.159 65.983-19.033 26.647-30.454 58.369-30.454 93.898 0 87.554 71.058 158.612 158.612 158.612s158.612-71.058 158.612-158.612v-1.269c0-88.823-71.058-158.612-158.612-158.612z" />
<glyph unicode="&#xe99a;" d="M725.809 453.71l-63.445 21.571c-6.344 2.538-10.151 10.151-8.882 16.496 1.269 5.076 6.344 8.882 12.689 8.882h44.411c7.613 0 12.689-6.344 12.689-12.689v-11.42h35.529v11.42c0 26.647-21.571 48.218-48.218 48.218h-5.076v35.529h-35.529v-35.529h-5.076c-26.647 0-48.218-21.571-48.218-48.218 0-20.302 13.958-39.336 32.991-45.68l63.445-21.571c6.344-2.538 10.151-10.151 8.882-16.496-1.269-5.076-6.344-8.882-12.689-8.882h-44.411c-7.613 0-12.689 6.344-12.689 12.689v11.42h-35.529v-11.42c0-26.647 21.571-48.218 48.218-48.218h5.076v-35.529h35.529v35.529h5.076c26.647 0 48.218 21.571 48.218 48.218 0 21.571-12.689 39.336-32.991 45.68z" />
<glyph unicode="&#xe99b;" horiz-adv-x="717" d="M418.449 771.635h418.449v-250.311c0-88.494-72.059-160.553-160.553-160.553h-44.247v111.249c69.531 18.963 126.42 70.795 152.968 139.062l-31.605 11.378c-27.812-74.588-101.136-125.156-180.78-125.156h-59.417c-3.793 0-7.585-1.264-11.378-3.793l-179.516-149.175c-17.699-15.17-44.247-13.906-61.946 3.793-7.585 8.849-12.642 20.227-12.642 31.605 0 12.642 5.057 22.756 13.906 31.605l243.99 228.82-22.756 25.284-67.002-63.21h-265.481l170.667 136.533c27.812 21.491 61.946 32.869 97.343 32.869z" />
<glyph unicode="&#xe99c;" horiz-adv-x="717" d="M236.405 324.109c-13.906 15.17-21.491 34.133-21.491 55.625h-335.012v-204.8c0-27.812 22.756-51.832 51.832-51.832h614.4c27.812 0 51.832 22.756 51.832 51.832v204.8h-180.78l-73.323-61.946c-31.605-26.548-77.116-24.020-107.457 5.057 1.264 0 0 1.264 0 1.264zM-68.267 259.635v34.133h136.533v-34.133h-136.533zM-68.267 174.933v34.133h222.499v-34.133h-222.499zM427.299 311.467h102.4c10.114 0 17.699-7.585 17.699-16.435v-102.4c0-8.849-7.585-16.435-17.699-16.435h-102.4c-8.849 0-17.699 7.585-17.699 16.435v102.4c0 8.849 7.585 16.435 17.699 16.435z" />
<glyph unicode="&#xe99d;" horiz-adv-x="717" d="M-68.267 600.968h495.565v-34.133h-495.565c-27.812 0-51.832-22.756-51.832-51.832v-341.333c0-27.812 22.756-50.568 51.832-50.568h614.4c27.812 0 51.832 22.756 51.832 51.832v307.2h34.133v-307.2c0-46.775-37.926-85.965-85.965-85.965h-614.4c-46.775 0-85.965 37.926-85.965 85.965v341.333c0 46.775 39.19 84.701 85.965 84.701z" />
<glyph unicode="&#xe99e;" horiz-adv-x="717" d="M418.449 805.768h434.884c8.849 0 17.699-7.585 17.699-16.435v-266.746c0-107.457-87.23-194.686-194.686-194.686h-61.946v34.133h61.946c88.494 0 159.289 72.059 160.553 160.553v249.047h-418.449c-34.133 0-68.267-11.378-96.079-34.133l-171.931-136.533-37.926-30.341-21.491 26.548 5.057 3.793 204.8 163.081c32.869 27.812 74.588 41.719 117.57 41.719z" />
<glyph unicode="&#xe99f;" horiz-adv-x="717" d="M261.689 346.864c17.699-17.699 42.983-18.963 61.946-3.793l178.252 150.44c2.528 2.528 7.585 3.793 11.378 3.793h59.417c79.644 0 152.968 50.568 180.78 125.156l31.605-11.378c-25.284-69.531-83.437-120.099-152.968-139.062-11.378-2.528-22.756-5.057-34.133-6.321-8.849-1.264-17.699-1.264-26.548-1.264h-53.096l-60.681-50.568-113.778-96.079c-31.605-26.548-77.116-24.020-107.457 5.057 0 0-1.264 1.264-1.264 1.264-13.906 15.17-21.491 34.133-21.491 55.625v1.264c0 11.378 3.793 22.756 8.849 32.869 3.793 7.585 10.114 15.17 16.435 21.491l31.605 29.077 145.383 136.533 67.002 63.21 22.756-25.284-242.726-227.556c-8.849-7.585-13.906-18.963-13.906-31.605s3.793-24.020 12.642-32.869z" />
<glyph unicode="&#xe9a0;" horiz-adv-x="717" d="M-120.099 498.568h427.299v-34.133h-427.299v34.133z" />
<glyph unicode="&#xe9a1;" horiz-adv-x="717" d="M409.6 413.867h204.8v-34.133h-204.8v34.133z" />
<glyph unicode="&#xe9a2;" horiz-adv-x="717" d="M-136.533 413.867h375.467v-34.133h-375.467v34.133z" />
<glyph unicode="&#xe9a3;" horiz-adv-x="717" d="M-68.267 209.067h222.499v-34.133h-222.499v34.133z" />
<glyph unicode="&#xe9a4;" horiz-adv-x="717" d="M-68.267 293.768h136.533v-34.133h-136.533v34.133z" />
<glyph unicode="&#xe9a5;" horiz-adv-x="717" d="M409.6 293.768v-102.4c0-8.849 7.585-16.435 17.699-16.435h102.4c10.114 0 17.699 7.585 17.699 16.435v102.4c0 8.849-7.585 16.435-17.699 16.435h-102.4c-10.114 1.264-17.699-6.321-17.699-16.435zM512 277.333v-68.267h-68.267v68.267h68.267z" />
<glyph unicode="&#xe9a6;" d="M345.6 172.8c0-1.28 0-2.56 0-3.84s-1.28-2.56-1.28-3.84c0-1.28-1.28-2.56-1.28-3.84-1.28-1.28-1.28-2.56-2.56-2.56-1.28-1.28-2.56-1.28-2.56-2.56-1.28-1.28-2.56-1.28-3.84-1.28s-2.56-1.28-3.84-1.28c-1.28 0-2.56 0-3.84 0s-2.56 0-3.84 0c-1.28 0-2.56 0-3.84 1.28-1.28 0-2.56 1.28-3.84 1.28-1.28 1.28-2.56 1.28-2.56 2.56-1.28 1.28-1.28 1.28-2.56 2.56s-1.28 2.56-1.28 3.84c0 1.28-1.28 2.56-1.28 3.84s0 2.56 0 3.84c0 1.28 0 2.56 0 3.84s0 2.56 1.28 3.84c0 1.28 1.28 2.56 1.28 3.84 1.28 1.28 1.28 2.56 2.56 2.56 1.28 1.28 1.28 1.28 2.56 2.56s2.56 1.28 3.84 1.28c1.28 0 2.56 1.28 3.84 1.28 2.56 0 5.12 0 7.68 0 1.28 0 2.56-1.28 3.84-1.28s2.56-1.28 3.84-1.28c1.28-1.28 2.56-1.28 2.56-2.56 1.28-1.28 1.28-2.56 2.56-2.56 1.28-1.28 1.28-2.56 1.28-3.84s1.28-2.56 1.28-3.84c0-1.28 0-2.56 0-3.84z" />
<glyph unicode="&#xe9a7;" d="M920.32 170.24c0 0 0 0 0 0-19.2 43.52-61.44 60.16-112.64 42.24l-139.52-38.4c-7.68 24.32-28.16 44.8-56.32 55.040 0 0 0 0 0 0l-153.6 52.48c-12.8 16.64-52.48 58.88-128 58.88-52.48 0-98.56-35.84-125.44-75.52h-184.32c-11.52 0-20.48-8.96-20.48-19.2v-252.16c0-11.52 8.96-20.48 20.48-20.48h119.040c11.52 0 20.48 8.96 20.48 20.48v16.64h56.32c11.52 0 20.48 8.96 20.48 20.48v5.12c32-2.56 43.52-8.96 72.96-25.6 23.040-12.8 57.6-33.28 120.32-61.44 0 0 0 0 1.28 0 11.52-5.12 35.84-11.52 64-11.52 20.48 0 42.24 3.84 66.56 14.080l308.48 110.080c0 0 1.28 0 1.28 1.28 26.88 11.52 70.4 49.92 48.64 107.52zM119.040 12.8h-79.36v212.48h79.36v-212.48zM194.56 49.92h-35.84v175.36h35.84v-175.36zM852.48 97.28l-307.2-110.080c0 0-1.28 0-1.28 0s0 0-1.28 0c-42.24-19.2-83.2-7.68-99.84-1.28-60.16 26.88-92.16 46.080-116.48 58.88-33.28 19.2-48.64 28.16-93.44 32v160c19.2 30.72 55.040 62.72 94.72 62.72 67.84 0 97.28-44.8 98.56-46.080 2.56-3.84 6.4-6.4 10.24-8.96l161.28-52.48c25.6-8.96 38.4-30.72 33.28-52.48-2.56-10.24-8.96-17.92-19.2-23.040-8.96-5.12-19.2-6.4-29.44-3.84l-179.2 56.32c-10.24 3.84-21.76-2.56-25.6-12.8s2.56-21.76 12.8-25.6l179.2-56.32c0 0 0 0 0 0 7.68-2.56 14.080-2.56 21.76-2.56 12.8 0 26.88 3.84 38.4 10.24 17.92 10.24 32 26.88 37.12 47.36 0 1.28 1.28 3.84 1.28 5.12l149.76 42.24c21.76 7.68 49.92 10.24 62.72-19.2 15.36-37.12-19.2-55.040-28.16-60.16z" />
<glyph unicode="&#xe9a8;" d="M883.2 154.88c-12.8 29.44-40.96 26.88-62.72 19.2l-149.76-42.24c0-1.28-1.28-3.84-1.28-5.12-5.12-20.48-19.2-37.12-37.12-47.36-11.52-6.4-25.6-10.24-38.4-10.24-7.68 0-14.080 1.28-21.76 2.56 0 0 0 0 0 0l-179.2 56.32c-10.24 3.84-16.64 14.080-12.8 25.6 3.84 10.24 14.080 16.64 25.6 12.8l179.2-56.32c10.24-2.56 20.48-1.28 29.44 3.84s15.36 12.8 19.2 23.040c6.4 21.76-7.68 43.52-33.28 52.48l-158.72 53.76c-3.84 1.28-7.68 5.12-10.24 8.96-1.28 1.28-29.44 46.080-98.56 46.080-39.68 0-76.8-32-94.72-62.72v-161.28c44.8-3.84 60.16-12.8 93.44-32 23.040-14.080 56.32-32 116.48-58.88 15.36-6.4 56.32-17.92 99.84 1.28 0 0 0 0 1.28 0 0 0 1.28 0 1.28 0l308.48 110.080c2.56 7.68 37.12 25.6 24.32 60.16zM345.6 168.96c0-1.28-1.28-2.56-1.28-3.84s-1.28-2.56-1.28-3.84c-1.28-1.28-1.28-2.56-2.56-2.56-1.28-1.28-2.56-1.28-2.56-2.56-1.28-1.28-2.56-1.28-3.84-1.28s-2.56-1.28-3.84-1.28c-1.28 0-2.56 0-3.84 0s-2.56 0-3.84 0c-1.28 0-2.56 0-3.84 1.28-1.28 0-2.56 1.28-3.84 1.28-1.28 1.28-2.56 1.28-2.56 2.56-1.28 1.28-1.28 1.28-2.56 2.56s-1.28 2.56-1.28 3.84c0 1.28-1.28 2.56-1.28 3.84s0 2.56 0 3.84c0 1.28 0 2.56 0 3.84s0 2.56 1.28 3.84c0 1.28 1.28 2.56 1.28 3.84 1.28 1.28 1.28 2.56 2.56 2.56 1.28 1.28 1.28 1.28 2.56 2.56s2.56 1.28 3.84 1.28c1.28 0 2.56 1.28 3.84 1.28 2.56 0 5.12 0 7.68 0 1.28 0 2.56-1.28 3.84-1.28s2.56-1.28 3.84-1.28c1.28-1.28 2.56-1.28 2.56-2.56 1.28-1.28 1.28-2.56 2.56-2.56 1.28-1.28 1.28-2.56 1.28-3.84s1.28-2.56 1.28-3.84c0-1.28 0-2.56 0-3.84s0-2.56 0-3.84z" />
<glyph unicode="&#xe9a9;" d="M718.080 692.48c0-1.28 0-2.56 0-3.84s-1.28-2.56-1.28-3.84c0-1.28-1.28-2.56-1.28-3.84-1.28-1.28-1.28-2.56-2.56-2.56-1.28-1.28-2.56-1.28-2.56-2.56-1.28-1.28-2.56-1.28-3.84-1.28s-2.56-1.28-3.84-1.28c-1.28 0-2.56 0-3.84 0s-2.56 0-3.84 0c-1.28 0-2.56 1.28-3.84 1.28s-2.56 1.28-3.84 1.28c-1.28 1.28-2.56 1.28-2.56 2.56-1.28 1.28-1.28 1.28-2.56 2.56s-1.28 2.56-1.28 3.84c0 1.28-1.28 2.56-1.28 3.84s0 2.56 0 3.84 0 2.56 0 3.84 0 2.56 1.28 3.84c0 1.28 1.28 2.56 1.28 3.84 1.28 1.28 1.28 2.56 2.56 2.56 1.28 1.28 1.28 1.28 2.56 2.56s2.56 1.28 3.84 1.28c1.28 0 2.56 1.28 3.84 1.28 2.56 0 5.12 0 7.68 0 1.28 0 2.56-1.28 3.84-1.28s2.56-1.28 3.84-1.28c1.28-1.28 2.56-1.28 2.56-2.56 1.28-1.28 1.28-1.28 2.56-2.56s1.28-2.56 1.28-3.84c0-1.28 1.28-2.56 1.28-3.84 0 0 0-2.56 0-3.84z" />
<glyph unicode="&#xe9aa;" d="M1003.52 892.16h-119.040c-11.52 0-20.48-8.96-20.48-20.48v-16.64h-56.32c-11.52 0-20.48-8.96-20.48-20.48v-5.12c-32 2.56-43.52 8.96-72.96 25.6-23.040 12.8-57.6 33.28-120.32 61.44 0 0 0 0-1.28 0-20.48 7.68-74.24 24.32-130.56-2.56l-78.080-28.16-67.84 67.84c-7.68 7.68-20.48 7.68-28.16 0l-222.72-222.72c-7.68-7.68-8.96-19.2 0-28.16l380.16-380.16c6.4-6.4 20.48-7.68 28.16 0l203.52 203.52c5.12 0 10.24-1.28 16.64-1.28 52.48 0 98.56 35.84 125.44 75.52h185.6c11.52 0 20.48 8.96 20.48 20.48v250.88c-1.28 11.52-10.24 20.48-21.76 20.48zM302.080 911.36l46.080-46.080c-14.080-8.96-29.44-12.8-46.080-12.8s-32 5.12-46.080 12.8l46.080 46.080zM153.6 672l-46.080 44.8 46.080 46.080c8.96-14.080 12.8-29.44 12.8-46.080 0-15.36-5.12-32-12.8-44.8zM459.52 364.8l-46.080 46.080c28.16 16.64 62.72 16.64 90.88 0l-44.8-46.080zM535.040 439.040c-44.8 32-104.96 32-148.48 0l-204.8 203.52c15.36 21.76 24.32 47.36 24.32 74.24s-8.96 52.48-24.32 74.24l46.080 46.080c21.76-15.36 47.36-24.32 74.24-24.32s52.48 8.96 74.24 24.32l43.52-43.52c-8.96-1.28-17.92-5.12-26.88-8.96-14.080-7.68-25.6-20.48-32-34.56-23.040-3.84-43.52-15.36-60.16-32-44.8-44.8-44.8-116.48 0-161.28 21.76-21.76 51.2-33.28 80.64-33.28s58.88 11.52 80.64 33.28c14.080 14.080 24.32 32 29.44 51.2l67.84-23.040c-7.68-34.56 0-71.68 21.76-101.12l-46.080-44.8zM413.44 636.16c0 0 0 0 0 0l40.96-14.080c-2.56-14.080-10.24-25.6-20.48-35.84-29.44-29.44-75.52-29.44-104.96 0s-29.44 75.52 0 104.96c6.4 6.4 15.36 12.8 24.32 16.64 3.84-32 25.6-58.88 60.16-71.68zM609.28 513.28c-7.68 12.8-11.52 26.88-12.8 42.24 8.96-6.4 21.76-14.080 35.84-19.2l-23.040-23.040zM789.76 628.48c-19.2-30.72-56.32-62.72-96-62.72-7.68 0-14.080 0-20.48 1.28v0c-43.52 6.4-66.56 30.72-74.24 40.96 0 0-2.56 2.56-2.56 3.84-2.56 3.84-6.4 7.68-11.52 8.96l-158.72 53.76c-25.6 8.96-38.4 30.72-32 52.48v0c2.56 10.24 8.96 17.92 17.92 23.040s19.2 6.4 29.44 3.84l179.2-56.32c10.24-3.84 21.76 2.56 25.6 12.8s-2.56 21.76-12.8 25.6l-142.080 44.8-75.52 75.52 62.72 23.040c0 0 0 0 1.28 0v0c0 0 0 0 1.28 0 42.24 19.2 83.2 7.68 99.84 1.28 60.16-26.88 92.16-46.080 116.48-58.88 33.28-19.2 48.64-28.16 93.44-32v-161.28zM865.28 640h-35.84v175.36h35.84v-175.36zM984.32 640h-79.36v212.48h79.36v-212.48z" />
<glyph unicode="&#xe9ab;" d="M696.32 820.48c-23.040 14.080-56.32 32-116.48 58.88-16.64 6.4-56.32 17.92-99.84-1.28 0 0 0 0-1.28 0v0c0 0 0 0-1.28 0l-62.72-23.040 75.52-75.52 142.080-44.8c10.24-3.84 16.64-14.080 12.8-25.6-3.84-10.24-14.080-16.64-25.6-12.8l-179.2 56.32c-10.24 2.56-20.48 1.28-29.44-3.84s-15.36-12.8-17.92-23.040v0c-6.4-21.76 7.68-43.52 32-52.48l158.72-53.76c5.12-1.28 8.96-5.12 11.52-8.96 0 0 2.56-2.56 2.56-3.84 7.68-10.24 30.72-34.56 74.24-40.96v0c6.4-1.28 12.8-1.28 20.48-1.28 39.68 0 76.8 32 96 62.72v162.56c-43.52 2.56-58.88 11.52-92.16 30.72zM718.080 688.64c0-1.28-1.28-2.56-1.28-3.84s-1.28-2.56-1.28-3.84c-1.28-1.28-1.28-2.56-2.56-2.56s-2.56-1.28-2.56-2.56c-1.28-1.28-2.56-1.28-3.84-1.28s-2.56-1.28-3.84-1.28c-1.28 0-2.56 0-3.84 0s-2.56 0-3.84 0c-1.28 0-2.56 1.28-3.84 1.28s-2.56 1.28-3.84 1.28c-1.28 1.28-2.56 1.28-2.56 2.56-1.28 1.28-1.28 1.28-2.56 2.56s-1.28 2.56-1.28 3.84c0 1.28-1.28 2.56-1.28 3.84s0 2.56 0 3.84c0 1.28 0 2.56 0 3.84s0 2.56 1.28 3.84c0 1.28 1.28 2.56 1.28 3.84 1.28 1.28 1.28 2.56 2.56 2.56 1.28 1.28 1.28 1.28 2.56 2.56s2.56 1.28 3.84 1.28c1.28 0 2.56 1.28 3.84 1.28 2.56 0 5.12 0 7.68 0 1.28 0 2.56-1.28 3.84-1.28s2.56-1.28 3.84-1.28c1.28-1.28 2.56-1.28 2.56-2.56s1.28-1.28 2.56-2.56c1.28-1.28 1.28-2.56 1.28-3.84s1.28-2.56 1.28-3.84c0-1.28 0-2.56 0-3.84s0-2.56 0-3.84z" />
<glyph unicode="&#xe9ac;" d="M631.040 536.32l-23.040-23.040c-7.68 12.8-11.52 26.88-12.8 42.24 10.24-6.4 21.76-14.080 35.84-19.2z" />
<glyph unicode="&#xe9ad;" d="M505.6 410.88l-46.080-46.080-46.080 46.080c29.44 16.64 64 16.64 92.16 0z" />
<glyph unicode="&#xe9ae;" d="M348.16 866.56c-14.080-8.96-29.44-12.8-46.080-12.8s-32 5.12-46.080 12.8l46.080 46.080 46.080-46.080z" />
<glyph unicode="&#xe9af;" d="M166.4 716.8c0-16.64-3.84-32-12.8-46.080l-46.080 46.080 46.080 46.080c7.68-14.080 12.8-29.44 12.8-46.080z" />
<glyph unicode="&#xe9b0;" d="M141.047 469.157c0 0-36.672-425.961 519.052-380.826l-33.851-97.322-167.846-45.135h-165.025c0 0-359.669 26.799-275.041 314.534 86.039 289.146 122.711 208.749 122.711 208.749z" />
<glyph unicode="&#xe9b1;" d="M351.207 314.006c0-21.157 16.926-36.672 36.672-36.672 47.956 0 86.039-38.083 86.039-86.039 0-36.672-22.567-69.113-56.419-80.397l-4.231-1.41v-32.441c0-12.694-11.284-23.978-23.978-23.978s-23.978 11.284-23.978 23.978v31.030l-4.231 1.41c-33.851 12.694-57.829 45.135-57.829 80.397 0 12.694 11.284 23.978 23.978 23.978s23.978-11.284 23.978-23.978c0-21.157 16.926-36.672 36.672-36.672s36.672 16.926 36.672 36.672c0 21.157-16.926 38.083-36.672 38.083-47.956 0-86.039 38.083-86.039 86.039 0 36.672 22.567 69.113 57.829 80.397l4.231 1.41v49.366c0 14.105 11.284 23.978 23.978 23.978 14.105 0 23.978-11.284 23.978-23.978v-49.366l4.231-1.41c33.851-12.694 56.419-45.135 56.419-80.397 0-14.105-11.284-23.978-23.978-23.978-14.105 0-23.978 11.284-23.978 23.978 0 21.157-16.926 36.672-36.672 36.672s-36.672-16.926-36.672-36.672z" />
<glyph unicode="&#xe9b2;" d="M473.917 189.884c0-36.672-22.567-69.113-56.419-80.397l-4.231-1.41v-32.441c0-14.105-11.284-23.978-23.978-23.978s-23.978 11.284-23.978 23.978v31.030l-4.231 1.41c-33.851 12.694-57.829 45.135-57.829 80.397 0 12.694 11.284 23.978 23.978 23.978s23.978-11.284 23.978-23.978c0-21.157 16.926-36.672 36.672-36.672 21.157 0 36.672 16.926 36.672 36.672 0 21.157-16.926 38.083-36.672 38.083-47.956 0-86.039 38.083-86.039 86.039 0 36.672 22.567 69.113 57.829 80.397l4.231 1.41v49.366c0 14.105 11.284 23.978 23.978 23.978 14.105 0 23.978-11.284 23.978-23.978v-47.956l4.231-1.41c33.851-12.694 56.419-45.135 56.419-80.397 0-12.694-11.284-23.978-23.978-23.978s-23.978 11.284-23.978 23.978c0 21.157-16.926 36.672-36.672 36.672-21.157 0-36.672-16.926-36.672-36.672 0-21.157 16.926-36.672 36.672-36.672 47.956-1.41 86.039-39.493 86.039-87.449z" />
<glyph unicode="&#xe9b3;" d="M389.289 357.73c23.978 0 43.725-19.747 43.725-43.725 0-9.873 8.463-16.926 18.336-16.926s16.926 8.463 16.926 16.926c0 33.851-21.157 63.471-52.187 74.755l-8.463 2.821v55.008c0 9.873-8.463 16.926-18.336 16.926s-16.926-8.463-16.926-16.926v-53.598l-8.463-2.821c-32.441-11.284-53.598-40.904-53.598-74.755 0-43.725 35.262-78.986 78.986-78.986 23.978 0 43.725-19.747 43.725-43.725s-19.747-43.725-43.725-43.725-43.725 19.747-43.725 43.725c0 9.873-8.463 18.336-18.336 18.336s-16.926-8.463-16.926-18.336c0-33.851 21.157-63.471 53.598-74.755l8.463-2.821v-36.672c0-9.873 8.463-18.336 16.926-18.336 9.873 0 18.336 8.463 18.336 18.336v36.672l8.463 2.821c31.030 11.284 52.187 40.904 52.187 74.755 0 43.725-35.262 78.986-78.986 78.986-23.978 0-43.725 19.747-43.725 43.725 0 22.567 19.747 42.314 43.725 42.314z" />
</font>
</defs>
</svg>
